<svg xmlns="http://www.w3.org/2000/svg" viewBox="0 0 139.6 26.7"><path d="M23.6 6.7v16h-2.4v-7.2h-3.7v7.2H15v-16h2.5v6.8h3.7V6.7h2.4zm12.7 19.1H34v-3.1h-6.8v3.1H25v-5.2h1c.4-.8.6-1.8.9-2.8.2-1 .4-2.1.5-3.2.1-1.1.2-2.2.2-3.3V6.7H35v13.9h1.3v5.2zM47 21.6c-.5.4-1.1.7-1.7 1-.7.2-1.4.4-2.2.4-1.6 0-2.9-.6-3.9-1.9-1-1.3-1.4-3.2-1.4-5.6 0-1.3.1-2.5.3-3.6s.5-2 .9-2.8c.4-.8.9-1.4 1.5-1.9.6-.4 1.3-.7 2.2-.7.7 0 1.3.1 1.8.4.5.3 1 .7 1.4 1.3.4.6.7 1.4.9 2.3.2.9.3 2.1.3 3.4v1.4h-6.7c0 1.8.3 3.2.7 4.1.5.9 1.2 1.4 2.2 1.4.7 0 1.3-.1 1.9-.4.5-.2 1-.5 1.3-.7l.5 1.9zm5-6.9v8h-2.5v-16H52v7.4l3.8-7.4h2.5l-4 7.5 4.5 8.5h-2.7l-4.1-8zm12.7 8.2c-1.7 0-3.1-.7-4-2s-1.5-3.4-1.5-6.2c0-1.2.1-2.4.4-3.4.2-1 .6-1.9 1.1-2.6.5-.7 1.1-1.2 1.8-1.6.7-.4 1.5-.6 2.5-.6.7 0 1.3.1 1.7.2l1.2.6-.3 2.3c-.4-.3-.8-.6-1.2-.8-.4-.2-.9-.3-1.4-.3-1 0-1.8.5-2.3 1.5-.6 1-.9 2.5-.9 4.5s.2 3.6.7 4.6c.5 1.1 1.2 1.6 2.2 1.6.6 0 1.1-.1 1.6-.3.4-.2.8-.4 1.1-.7l.6 1.8c-.4.4-.9.6-1.4.9-.5.4-1.2.5-1.9.5zM42.6 8.5c-.8 0-1.3.4-1.6 1.3s-.5 2-.6 3.4h4.1c0-.7 0-1.3-.1-1.9 0-.5-.1-1-.3-1.5-.1-.4-.3-.8-.6-1-.3-.2-.6-.3-.9-.3zm-10 .2h-2.8v3.1c0 1-.1 2-.2 3.1-.1 1-.3 2-.4 3.1-.2.9-.4 1.9-.8 2.8h4.2V8.7zM7.3 14l-3.9 8.7H.6l4.2-9.3c-1-.5-1.8-1.3-2.4-2.2-.6-1-.9-2.3-.9-4 .1-1.2.2-2.3.6-3.2.3-.9.8-1.6 1.4-2.2.6-.6 1.3-1 2.1-1.3C6.4.1 7.3 0 8.1 0h3.6v22.7H9.4V14H7.3zM9.4 2.1H8.1c-.5 0-1 .1-1.4.3s-1 .4-1.3.8c-.4.4-.7.9-.9 1.5-.2.7-.3 1.5-.3 2.4 0 .9.1 1.7.3 2.3.2.6.5 1.1.8 1.5.3.4.8.6 1.2.8s1 .2 1.5.2h1.3l.1-9.8zM77.8 13.9v8.9h-1.6V.1h3.2c1.8 0 3.1.5 4.1 1.6 1 1.1 1.5 2.7 1.5 5 0 2.5-.5 4.3-1.6 5.5-1 1.1-2.4 1.7-4.2 1.7h-1.4zm0-12.5v11.2h1.5c1.3 0 2.3-.4 3.1-1.3.7-.9 1.1-2.4 1.1-4.4 0-1.9-.3-3.3-1-4.1-.7-.9-1.7-1.3-2.9-1.3l-1.8-.1zm12.8 20.5c.7 0 1.4-.3 1.9-.9.5-.6.9-1.4 1.2-2.2v-4.4H92c-1.3 0-2.3.3-2.9 1-.6.6-1 1.7-1 3 0 1.1.2 2 .7 2.6.4.6 1 .9 1.8.9zm3.5.9c-.1-.2-.1-.5-.2-.8-.1-.4-.1-.9-.2-1.3-.4.8-.9 1.4-1.4 1.8-.6.4-1.3.7-2.1.7-1.1 0-2-.4-2.6-1.2-.7-.8-1-2-1-3.4 0-1.7.5-3 1.4-3.9.9-.9 2.2-1.3 4-1.3h1.7v-2c0-1.2-.2-2.1-.7-2.7s-1.1-.8-2-.8c-.7 0-1.3.2-1.9.5-.6.2-1.1.6-1.5 1.1l-.4-1.4c.3-.4.8-.8 1.5-1.1.6-.3 1.4-.5 2.3-.5 1.3 0 2.3.4 3.1 1.1.7.7 1.1 1.9 1.1 3.5v8.7c0 .5 0 1.1.1 1.7.1.6.1 1 .3 1.3h-1.5zm8.9.3c-.7 0-1.4-.2-2-.6-.6-.4-1.1-.9-1.6-1.7-.5-.8-.8-1.7-1.1-2.9-.3-1.2-.4-2.6-.4-4.2 0-2.3.1-4.3.3-6 .2-1.7.6-3.1 1.1-4.2.5-1.1 1.2-1.9 2-2.4s1.8-.8 3-.9c.7 0 1.3-.1 1.6-.2.4-.1.7-.3 1-.6l.4 1.2c-.5.6-1.5.9-3 .9-1.6 0-2.7.7-3.5 2-.8 1.5-1.3 3.6-1.5 6.5.4-1.1.9-1.9 1.6-2.5.6-.6 1.4-.9 2.4-.9 1.4 0 2.5.7 3.4 2 .9 1.4 1.3 3.3 1.3 6 0 1.3-.1 2.5-.4 3.5-.3 1-.6 1.9-1 2.7-.4.7-1 1.3-1.6 1.7-.7.4-1.3.6-2 .6zm-.1-1.2c1 0 1.9-.6 2.5-1.9.7-1.3 1-3 1-5.2 0-2.3-.3-4-.9-5.2-.6-1.2-1.4-1.7-2.3-1.7-.8 0-1.6.4-2.3 1.1-.7.7-1.2 1.7-1.6 2.9v2.3c0 2.6.3 4.6 1 5.9.8 1.2 1.6 1.8 2.6 1.8zm11.8 1.2c-.7 0-1.3-.2-1.9-.5-.6-.3-1.1-.9-1.5-1.5-.4-.7-.8-1.5-1-2.6-.3-1-.4-2.2-.4-3.6 0-1.3.1-2.5.4-3.6.3-1 .6-1.9 1-2.6.4-.7.9-1.3 1.5-1.6.6-.4 1.2-.6 1.9-.6s1.3.2 1.9.5c.6.3 1.1.9 1.5 1.5.4.7.8 1.5 1 2.6.3 1 .4 2.2.4 3.6 0 1.3-.1 2.5-.4 3.6-.3 1-.6 1.9-1 2.6-.4.7-.9 1.3-1.5 1.6-.5.4-1.2.6-1.9.6zm0-1.2c.9 0 1.7-.6 2.4-1.7.7-1.2 1-2.9 1-5.4 0-1.2-.1-2.3-.3-3.2-.2-.9-.4-1.6-.7-2.2-.3-.6-.7-1-1.1-1.3-.4-.3-.8-.4-1.3-.4-.9 0-1.7.6-2.4 1.7s-1 2.9-1 5.4c0 1.2.1 2.3.3 3.2.2.9.4 1.6.7 2.2.3.6.7 1 1.1 1.3.4.3.8.4 1.3.4zm11-13.8v14.7h-1.5V8.1h-3.7V6.8h8.9V8c0 .1-3.7.1-3.7.1zm9 13.8c.7 0 1.4-.3 1.9-.9s.9-1.4 1.2-2.2v-4.4H136c-1.3 0-2.3.3-2.9 1-.6.6-.9 1.7-.9 3 0 1.1.2 2 .7 2.6s1 .9 1.8.9zm3.5.9c-.1-.2-.1-.5-.2-.8-.1-.4-.1-.9-.2-1.3-.4.8-.9 1.4-1.4 1.8-.6.4-1.3.7-2.1.7-1.1 0-2-.4-2.6-1.2-.7-.8-1-2-1-3.4 0-1.7.5-3 1.4-3.9.9-.9 2.2-1.3 4-1.3h1.7v-2c0-1.2-.2-2.1-.7-2.7-.4-.6-1.1-.8-2-.8-.7 0-1.3.2-1.9.5-.6.3-1.1.7-1.5 1.3l-.4-1.4c.3-.4.8-.8 1.4-1.1.6-.3 1.4-.5 2.3-.5 1.3 0 2.4.4 3.1 1.1.7.7 1.1 1.9 1.1 3.5V20c0 .5 0 1.1.1 1.7.1.6.1 1 .3 1.3 0-.2-1.4-.2-1.4-.2z" fill="#fff"/></svg>