<svg xmlns="http://www.w3.org/2000/svg" viewBox="0 0 965.9 535.1"><path d="M788 116.2c-99.1-.7-179 78.7-180.5 176.2-1.5 100.4 79.3 181.8 179.1 181.8 98.3.1 178.6-79.7 179.4-176.9.7-98.9-78.6-180.5-178-181.1zm-25.7 123.9c-3.1 7.7-5.8 15.6-8.4 23.5-.8 2.3-1.5 3.1-3.9 1.6-2.1-1.3-4.5-2.3-6.9-3.1-11.2-3.5-20.5.7-25 11.5-4.5 10.7-4.4 22.2-4.6 33.5-.3 17.3-.3 34.7-.3 52.1 0 3.5-.6 5-4.6 4.8-9-.3-18-.2-27 0-3 .1-3.7-.9-3.7-3.8.1-41.3.1-82.7 0-124 0-2.9.9-3.8 3.8-3.7 8.5.2 17 .1 25.6 0 2.6 0 3.6.7 3.5 3.4-.2 4.4-.1 8.8-.1 14.4 2.2-3.1 3.7-5.1 5.2-7.1 9.5-12.6 20.5-16.3 35.7-12.1 2.7.8 5.3 1.9 8 2.9 3 1.2 4.1 2.7 2.7 6.1zm130.3 124c-8.7-.2-17.4-.2-26 0-2.8.1-3.4-1-3.3-3.5.2-4.7.1-9.4.1-15.5-9.5 12.1-20.8 19.3-34.8 21.2-17.7 2.4-33.8-.9-44.9-16.6-5.8-8.2-7.1-17.9-7.2-27.5-.3-28.7-.2-57.5-.3-86.2 0-2.8.9-3.4 3.5-3.4 9.2.1 18.3.2 27.5 0 3.3-.1 4.2.8 4.2 4.2-.2 20.7-.1 41.4-.1 62 0 6.8.5 13.5.7 20.3.6 20.6 18.2 24.3 31 19.3 9.7-3.8 15.6-10.8 16.7-21.6 2.2-22.4 1-44.8 1.3-67.2.1-4.6.1-9.2 0-13.7-.1-2.4.6-3.4 3.2-3.3 9.6.1 19.3.1 28.9 0 2.6 0 3.1 1.1 3.1 3.4 0 41.5-.1 83 0 124.5-.1 2.7-.8 3.7-3.6 3.6zM549 402.6c-.1-56.5-.1-113-.1-169.6 0-15.5-.4-30.9-3-46.2-4-22.9-13.4-42.9-33.8-55.7-31.9-20-65.7-22.1-100.4-8.2-17.3 6.9-31.1 18.9-44 33.8v-6.4c0-48.6 0-97.3.1-145.9 0-3.4-.6-4.6-4.3-4.5-22.1.2-44.2.2-66.3 0-3.2 0-4.2.6-4.2 4.1.1 133.1.1 266.2 0 399.3 0 3.9 1.3 4.2 4.6 4.2 21.8-.1 43.6-.2 65.4 0 3.9 0 5-.8 5-4.8-.2-47.8-.1-95.7-.1-143.5 0-12 .9-23.9 3-35.8 5.8-33.5 29.4-52.8 62.1-50.7 23.1 1.5 37.6 16.5 39.6 36.5 1.3 12.4 1.9 24.8 2 37.3.1 51.9.1 103.9 0 155.8 0 3.9.6 5.3 5 5.3 21.6-.3 43.3-.2 64.9 0 3.8 0 4.5-1.2 4.5-5zm-297.7 5c3.9 0 4.9-.9 4.9-4.8-.1-58.4-.1-116.8-.1-175.2 0-13.4-.6-26.8-2.9-40.1-4.2-24.7-15-45.3-37.3-58.5-38.1-22.5-87.2-18.8-121.9 9.2-6.7 5.4-12.7 11.5-19.3 18.8v-6.2c0-48.6 0-97.3.1-145.9 0-3.5-.5-4.8-4.5-4.8C48.2.2 26.3.2 4.4 0 .7 0 0 1 0 4.4c.1 132.9.1 265.9 0 398.8 0 3.7 1.1 4.3 4.5 4.3 21.8-.2 43.6-.2 65.4 0 4 0 4.9-1 4.9-4.9-.1-46.1-.2-92.2-.1-138.3 0-14 .6-28 3.2-41.9 6.2-32.9 29.7-51.9 62-49.7 22.8 1.5 37.7 16 39.6 37 1.1 11.3 1.8 22.6 1.8 34 0 53 .1 106.1-.1 159.1 0 3.6.8 4.7 4.6 4.7 21.9-.1 43.7-.1 65.5.1zM54.4 451.2c-2.7.1-5.7-1-5.4 3.9.4 8.7 0 17.4.2 26 0 2.8-.3 4.2-3.7 4.1-10.4-.3-20.8-.2-31.2 0-3 .1-3.7-.8-3.6-3.7.2-8.8-.2-17.7.2-26.5.2-4.9-2.9-3.7-5.5-3.8-2.7-.1-5.1-.6-5 3.8.3 12.3.1 24.6.1 36.9 0 12.6.2 25.3-.1 37.9-.1 3.8 1.6 4.2 4.4 3.8 2.5-.4 6.2 1.8 6-3.7-.3-10.4 0-20.8-.2-31.2-.1-3.2.9-4 4-3.9 10.1.2 20.2.2 30.3 0 3.7-.1 4.4 1.2 4.4 4.6-.2 10.3.1 20.5-.2 30.8-.2 5.2 3.3 3.2 5.7 3.5 2.7.3 4.6.3 4.6-3.7-.2-24.9-.2-49.9 0-74.8-.1-4.3-2.2-4.2-5-4zm252 41.1c0-12.5-.2-24.9.1-37.4.1-4-2-3.9-4.7-3.6-2.5.2-5.8-1.3-5.6 3.7.3 8.8 0 17.7.1 26.5 0 2.7-.4 3.9-3.5 3.8-10.6-.2-21.1-.2-31.7 0-2.8 0-3.4-.9-3.3-3.5.1-8.7-.2-17.4.2-26 .2-4-1.3-4.8-4.8-4.6-3.1.2-5.5-.4-5.5 4.4.3 24.6.3 49.2 0 73.9 0 4.4 2 4.2 5.1 4.3 3.4.1 5.5 0 5.3-4.6-.4-10.1 0-20.2-.2-30.3-.1-3.4 1.1-4.2 4.3-4.1 9.9.2 19.9.2 29.8 0 3.4-.1 4.7.7 4.6 4.4-.3 9.8.1 19.6-.2 29.4-.1 4 .7 5.5 5.1 5.3 3.9-.2 5.4-.6 5.3-5.1-.6-12.2-.4-24.4-.4-36.5zm-78.5-41.2c-3.3 0-5.1.4-4.9 4.5.4 7.7.1 15.5.1 23.8-12.2-10-25.9-8.8-32.6 3.5-7.5 13.8-7.6 28.3.5 41.9 7.2 12 21 13.3 31.3 3.8.3-.2.8-.2 1.3-.3 0 .6.1 1.1 0 1.6-.8 4.6 2.5 3.4 5 3.7 3.3.4 3.8-1.1 3.8-4-.1-24.8-.2-49.6 0-74.3.1-3.8-1.3-4.2-4.5-4.2zm-7.2 68.3c-2 4.4-5.9 7.1-10.9 7.1-5.4.1-9-3.1-11.7-7.6-2.8-4.6-2.9-9.9-3.1-15.4.3-4.5.2-9.4 2.5-14 2.3-4.7 5.7-7.9 11.1-8.2 5.5-.3 9.6 2.5 11.8 7.1 4.9 10.2 5.1 20.7.3 31zm-45.8-32.1c-.8-7.6-4.3-11.7-11.7-13.6-6.9-1.7-13.7-1.5-20.5.7-6.6 2.1-10.4 6.8-12.2 13.3-.4 1.3-1.5 3.6 1.1 3.6 2.6.1 5.9 3 7.9-.8 4.5-8.8 11.7-11.8 20.4-8.1 4.2 1.8 6.8 6.3 6.1 11.2-.6 4.2-4.5 3.1-7.1 3.9-6.2 1.9-12.8 1.5-19 3.7-8.3 3.1-12.6 10.3-11.6 19.4.9 7.9 6.5 13.1 15.2 14.2 7.6.9 14.4-1.1 20.2-5.9 1.9-1.6 3.1-2.2 3.4 1.1.2 2.9 1.8 4 4.8 3.7 1.8-.2 3.7 0 6.5 0-3-5.6-2.8-10.9-2.9-16.1-.3-10.1.4-20.2-.6-30.3zm-26.6 39.5c-5.5-.2-9.4-3.3-10.1-8-.7-4.9 2.1-8.6 7.7-10.1 6.5-1.7 13.3-2.1 19.6-4.7 1.5 14.4-5.3 23.2-17.2 22.8zm326.5-20.4c8.8.2 17.7.1 26.5.1 11.2 0 11.2 0 9.6-11.4-1.7-11.9-9.8-20.8-20.1-22.2-12-1.7-22.1 3.9-26.5 15.1-4 10.2-4.1 20.7-.5 31 3.9 11.1 13.8 16.9 25.7 15.9 11.7-1 19.2-7.7 21.5-19.2-1.1-.2-2.2-.4-3.2-.7-3.9-1.2-6.3-.6-8.4 3.7-4.3 9.1-15.5 10.4-22.6 3.1-3.1-3.2-4.3-7.2-5.3-11.4-.7-3-.1-4.1 3.3-4zm-2.8-11.6c1-7.7 7.5-13.7 15-13.6 7.5.1 13.7 6.3 14.4 14.2.2 2.4-.9 2.6-2.7 2.5-4.1-.1-8.2 0-12.2 0-3.8 0-7.5-.1-11.3 0-2.5.1-3.5-.4-3.2-3.1zM84.3 506.4c10.7.2 21.4-.1 32.2.2 3.8.1 4.5-1.2 4.3-4.6-.3-4.3-.7-8.5-2.1-12.5-3.7-10.7-11.8-16.7-22.6-16.8-10.8-.1-19.2 5.8-23 16.3-3.2 9-3.5 18.2-.9 27.4 3.3 12.1 12.4 18.9 24.6 18.8 12.2-.2 20.3-6.7 23.6-19.5-1.3-.2-2.3-.3-3.2-.5-3.9-1-7-1.2-8.6 3.9-1.2 3.8-4.6 6.2-8.8 7.1-9.3 2-17.5-4.9-18.9-15.7-.6-3.3.3-4.1 3.4-4.1zM81 495.7c.6-7.5 7.2-14.2 14.4-14.5 7.9-.3 13.7 5.1 15 13.4.4 2.6-.1 3.4-2.7 3.3-4.1-.2-8.2 0-12.3 0H83.6c-1.7.1-2.8 0-2.6-2.2zm341.5-5.1c-.3-9.8-4.7-15.4-13.1-17.4-8.7-2-16.2.2-22.4 8.1-.1-1.6-.2-2.1-.1-2.7.4-3.3-.2-4.9-4.4-5-4.5-.1-4.2 2.2-4.2 5.2.1 16.9.1 33.8-.1 50.7 0 3.6 1.3 4.2 4.4 4 2.9-.1 5.4.5 5.3-4.1-.3-9.8-.1-19.6-.1-29.4 0-3.8.4-7.6 1.9-11.1 2.1-4.9 8.3-8.3 13.6-7.5 5.6.8 8.8 4.2 9.7 10.6.3 2.2.3 4.4.3 6.6 0 10.6.2 21.2-.1 31.7-.1 3.7 2.1 3.5 4.1 3 1.9-.4 5.5 2.2 5.4-2.6 0-13.2.2-26.6-.2-40.1zm-62.3-16.7c-2.4.1-4.9-.7-4.8 3.5.3 9.3.1 18.6.1 27.9 0 3.5-.2 6.9-1 10.3-1.5 6.4-7.4 10.6-14.1 10.3-6-.3-9.2-4-10-11.5-.2-2.2-.3-4.4-.3-6.6 0-10.3-.1-20.5 0-30.8 0-2.5-.9-3.7-3.2-3.1-2.1.6-6.2-2.3-6.2 2.4.1 14.5-.9 29 .6 43.5.7 6.7 4.1 11.5 10.7 13.7 9.6 3.2 17.6.9 24.5-8.2 0 2.2.1 3.2 0 4.1-.6 3.4.8 4.2 4.1 4.1 3-.1 4.4-.5 4.4-4.1-.2-17.4-.2-34.7 0-52.1 0-3.8-2.2-3.5-4.8-3.4zM453.9 524.7c-6.1-.4-6.8-1.1-6.9-7.4-.1-10.1.2-20.2-.1-30.3-.1-3.9.9-5.4 4.9-5 1.4.2 3.6 1.2 4.3-1.4 1.3-4.5-.2-6.9-4.8-6.6-3.7.2-4.6-1-4.4-4.5.3-5.1.1-10.3.1-15.6-8.8 3.6-9.2 4.2-9.2 12.7 0 1.1-.1 2.2 0 3.3.3 2.8-.3 4.7-3.7 4.1-3.5-.6-3.3 1.7-3.3 4.1 0 2.2-.4 4.7 3.2 4.1 3.3-.5 3.9 1 3.8 4-.1 11.7-.2 23.4 0 35 .2 10.6 6.6 15.4 16.9 13.1 1.9-.4 3.4-1.1 2.4-3.4-.9-2.2 1.2-5.9-3.2-6.2zM548.6 474.2c-7-3.3-11.7-1.8-17.9 6.7-.2-1.3-.4-1.9-.3-2.5.7-4-1.3-4.5-4.8-4.6-3.8-.1-3.9 1.7-3.9 4.6.1 17.3.1 34.7 0 52 0 4 2.3 3.3 4.6 3.2 2.2-.1 5.2 1.3 5.1-3.2-.2-8.7 0-17.3-.1-26 0-4.7.2-9.5 1.6-14 1.8-5.8 6.7-8.3 12.1-6.3 2.2.8 4 1.3 4.3-1.6.2-2.8 4.6-5.8-.7-8.3z" fill="#fff"/><path d="M896.1 236c0-2.3-.5-3.5-3.1-3.4-9.6.1-19.3.1-28.9 0-2.6 0-3.3 1-3.2 3.3.1 4.6.1 9.2 0 13.7-.3 22.4.9 44.8-1.3 67.2-1.1 10.7-6.9 17.8-16.7 21.6-12.8 5-30.4 1.3-31-19.3-.2-6.8-.7-13.5-.7-20.3 0-20.7-.1-41.4.1-62 0-3.4-.9-4.2-4.2-4.2-9.2.2-18.3.2-27.5 0-2.6 0-3.5.6-3.5 3.4.1 28.7 0 57.5.3 86.2.1 9.6 1.4 19.4 7.2 27.5 11.1 15.7 27.2 18.9 44.9 16.6 14-1.9 25.3-9.1 34.8-21.2 0 6.1.1 10.8-.1 15.5-.1 2.6.5 3.6 3.3 3.5 8.7-.2 17.4-.2 26 0 2.8.1 3.4-.9 3.4-3.5.1-41.6.1-83.1.2-124.6zm-136.4-1.9c-2.7-1-5.3-2.2-8-2.9-15.3-4.3-26.3-.5-35.7 12.1-1.5 2-3 4-5.2 7.1 0-5.6-.2-10 .1-14.4.1-2.8-.8-3.5-3.5-3.4-8.5.1-17 .2-25.6 0-2.9-.1-3.8.8-3.8 3.7.1 41.3.1 82.7 0 124 0 2.8.7 3.8 3.7 3.8 9-.2 18-.3 27 0 4 .1 4.6-1.3 4.6-4.8-.1-17.4 0-34.7.3-52.1.2-11.3.1-22.8 4.6-33.5 4.5-10.8 13.8-15.1 25-11.5 2.4.8 4.8 1.7 6.9 3.1 2.4 1.5 3.1.7 3.9-1.6 2.7-7.9 5.3-15.8 8.4-23.5 1.3-3.5.2-5-2.7-6.1z" fill="none"/></svg>