<svg xmlns="http://www.w3.org/2000/svg" viewBox="0 0 90 26"><path d="M13.1 13.8c0-2.2-.7-3.5-1.6-4-2.6-1.8-7.2-1-7.2-4.5 0-1.7.8-3.4 3.1-3.4 3.1 0 4.3 2.7 4.6 4.3h.1V1.3H12c-.4.4-.7.6-1 .6-.3 0-1.8-.6-3.5-.6-3.2 0-6.1 1.9-6.1 5.7 0 7.5 9 3.4 9 9 0 2.6-1.9 3.2-3.3 3.2-2.8 0-4.5-1.8-5.2-5h-.1v5.7h.1c.6-.5 1-.7 1.2-.7.8 0 2 .7 3.9.7 3.4 0 6.1-2.3 6.1-6.1zm7.9 3.3c0 .6-.6 1.1-1.1 1.1-.7 0-1.1-.3-1.1-1.1V7.4h-4.6v.1c.6.2 1 1.1 1 1.7v9.1c0 1 1.6 1.5 2.3 1.5 1.8 0 3.2-1.2 3.5-1.6l.1 1.6h.1c1.3-.4 3.3-.4 4.3-.4v-.1c-.6-.3-1-1-1-1.7V7.4H20v.1c.6.2 1 1.1 1 1.7v7.9zm6.5 5.4c0 .6-.5 1.5-1 1.7v.1H32v-.1c-.6-.2-1-1-1-1.7v-3.7c.6.7 1.8.9 2.8.9 2.8 0 3.8-3.2 3.8-6.7 0-3.2-1.4-5.8-3.8-5.8-.9 0-2.3.5-2.8 1l-.1-1h-.1c-1.3.3-2.4.4-4.3.4v.1c.6.3 1 1 1 1.7v13.1zM31 9.4c0-.6.6-1.3 1.4-1.3 1.4 0 1.5 3.2 1.5 5.6 0 2.2-.3 5.1-1.6 5.1-.7 0-1.2-.5-1.2-1.1V9.4H31zm17.5 6.5v-.8c-.5 1-1.3 2.1-3 2.1-2 0-3.1-1.2-3.1-4.5h6.1c0-1.4-.1-5.5-4.6-5.5-3 0-5.1 3-5.1 6.4 0 3 1.6 6.1 4.9 6.1 2.9.1 3.9-1 4.8-3.8zm-6-3.8c0-2.7.2-4.3 1.4-4.3.9 0 1.3 1.6 1.3 4.3h-2.7zm8.3 5.7c0 .6-.5 1.4-1 1.6v.1h5.6v-.1c-.6-.2-1-1-1-1.6v-6.3c0-1.2.6-2.1 1.4-2.1.4 0 1 .3 1.2.7l1-2.5c-.4-.4-.8-.6-1.3-.6-1.2 0-1.8.8-2.4 1.7V7h-.1c-.3.2-1.3.4-4.5.4v.1c.5.2 1 1.1 1 1.7v8.6h.1zM60.1 19.2c0 .9-.2 3.9-1.5 4.8v.2c1.2 0 5.5-3.5 5.5-6.4V3.9c0-1 .7-1.8 1.3-2.1v-.1h-6.6v.1c.6.3 1.3 1 1.3 2.1v15.3zm17.2-5.7c0-4-2.4-6.2-5.3-6.2s-5.3 2.2-5.3 6.2c0 4.1 2.4 6.3 5.3 6.3s5.3-2.2 5.3-6.3zm-3.8 0c0 3.9-.2 5.8-1.5 5.8-1.2 0-1.5-1.9-1.5-5.8s.2-5.7 1.5-5.7 1.5 1.9 1.5 5.7zm5.9 6.1c.3-.5.9-.7 1.1-.7.7 0 1.8.9 3.3.9 3.5 0 5.2-3.6 5.2-7.2 0-4-2.6-5.4-4-5.4-1 0-1.8.3-2 .5v-6h-.1c-.3.2-1.4.4-4.6.4v.1c.5.2 1 1.1 1 1.7v15.7h.1zM83 8.7c0-.4.3-.7.7-.7.9 0 1.6 1.7 1.6 5.5 0 1.5 0 5.8-1.5 5.8-.3 0-.4-.1-.7-.3V8.7H83z" fill="#fff"/></svg>