<svg width="210" height="65" viewBox="0 0 210 65" fill="none" xmlns="http://www.w3.org/2000/svg">
<path d="M194.75 2.46999C183.54 2.56999 183.64 2.59999 184.63 4.30999C185.12 5.16999 187.84 5.47999 193.22 5.46999C197.56 5.48999 201.37 5.57999 201.66 5.65999C202.05 5.75999 202.08 5.25 201.92 4.69C201.79 4.03 202.28 3.74999 203.05 3.95999C203.92 4.18999 204.72 3.88999 204.85 3.40999C205.01 2.82999 205.01 2.42 204.89 2.49C204.69 2.45 200.13 2.46999 194.75 2.46999ZM179.42 2.50999C178.18 2.48999 177.26 2.85999 177.42 3.41999C177.68 4.00999 176.51 4.11 174.97 3.69C173.23 3.22 171.72 3.44 171.08 4.3C170.41 5.26 170.62 5.63 171.98 5.58C172.93 5.52 176.01 5.61999 178.7 5.61999C181.37 5.70999 183.56 5.27 183.52 4.63C183.45 3.28 182.44 2.79999 179.42 2.50999V2.50999ZM202.78 14.98C202.79 18.81 203.22 22.24 203.74 22.59C204.26 22.94 204.6 23.65 204.47 24.13C204.31 24.71 203.88 24.8 203.47 24.38C203.09 23.86 202.72 24.49 202.72 25.63C202.73 26.77 203.17 27.82 203.65 27.95C204.13 28.08 204.22 28.52 203.83 28.83C202.84 29.81 202.54 39.04 203.51 39.3C205.25 39.77 205.84 37.96 205.64 32.52C205.37 25.41 205.37 25.41 205.63 21.75C206.04 15.96 205.1 8.66999 203.94 8.35999C202.97 8.08999 202.73 9.79 202.78 14.98V14.98ZM165.2 2.63C164.67 2.69 162.17 2.74999 159.89 2.75999C155.36 2.67999 151.85 4.95 155.99 5.34C162.58 5.86 168.33 5.63999 167.35 5.06999C166.85 4.61999 166.62 3.93999 167.13 3.55999C167.84 2.81999 167.12 2.42 165.2 2.63ZM145.75 2.6C142.96 2.58 140.41 2.83 140.04 3.04C138.69 3.82 140.22 5.47 142.64 5.7C144.07 5.77 145.02 5.29999 144.79 4.61999C144.66 3.95999 144.87 3.92 145.45 4.49C146.74 5.87 152.6 5.98999 152.46 4.60999C152.39 2.92999 151.23 2.61 145.75 2.6V2.6ZM135.95 3.59C135.5 4.09 134.13 3.83 133.05 3.23C131.15 2.2 126.32 3.6 127.1 4.95C127.71 6.15 137.95 5.79 138.29 4.53C138.68 3.08 137.18 2.48 135.95 3.59ZM99.59 2.55C93.06 2.56 87.43 3.11999 86.96 3.71999C85.91 5.29999 88.7 5.73999 99.08 5.61999C107.28 5.53999 113.43 4.6 113.77 3.34C113.97 2.57 111.84 2.41 99.59 2.55V2.55ZM63.25 2.54C55.05 2.62 49.67 3.77 50.49 5.33C50.66 5.48 56.21 5.62 62.83 5.63C70.52 5.52 74.99 5.06 75.23 4.19C75.67 2.56 74.97 2.47 63.25 2.54ZM204.09 41.42C203.16 41.79 202.61 42.68 202.72 43.85C202.89 45.14 203.32 45.46 204.18 44.97C206.13 43.83 206.01 40.79 204.09 41.42V41.42ZM38.41 2.50999C34.14 2.60999 30.35 2.84 29.98 3.05C29.59 3.36 28.64 3.41999 27.87 3.20999C25.26 2.50999 19.55 3.35999 19.24 4.51999C19.08 5.09999 19.78 5.59999 20.8 5.65999C21.75 5.59999 28.27 5.58999 35.31 5.60999C42.44 5.65999 47.96 5.17 47.92 4.54C47.87 2.77 46.58 2.52999 38.41 2.50999V2.50999ZM204.17 47.65C202.5 50.41 202.12 55.69 203.7 55.6C204.33 55.56 205.17 54.75 205.65 53.74C206.23 52.34 206.16 52.22 205.08 53.17C204.15 53.95 204.04 53.2 204.6 49.94C205.34 46.41 205.25 45.97 204.17 47.65V47.65ZM7.65 2.55C5.12 2.7 4.02 3.33999 3.73 4.80999C3.42 5.96999 3.63 6.34 4.1 5.74C4.45 5.21 5.47 4.87 6.15 5.05C6.83 5.23 7.85 4.87999 8.23 4.25999C8.7 3.65999 9.02 3.63999 8.84 4.31999C8.52 5.88999 13.35 6.05 14.46 4.58C15.48 3.1 12.68 2.35 7.65 2.55V2.55ZM202.94 58.81C200.68 60.28 200.68 60.28 203.2 60.95C205.9 61.67 206.45 61.2 205.76 58.74C205.32 57.69 204.71 57.63 202.94 58.81V58.81ZM194.44 59.64C192.84 59.83 193.17 60.13 195.97 60.88C197.93 61.3 199.65 61.45 199.73 61.16C199.99 60.2 196.89 59.37 194.44 59.64V59.64ZM3.54 19.05C3.54 39.13 3.65 39.89 5.12 39.04C6.1 38.47 6.48 36.3 6.5 30.82C6.57 26.7 6.39 22.72 6.16 22.03C5.83 21.32 5.82 20.59 6.16 20.48C7.38 19.77 6.37 10.81 5 10.13C3.73 9.46999 3.58 10.78 3.54 19.05V19.05ZM187.68 59.38C187.07 59.73 170.16 59.86 164.88 59.48C156.4 59.07 148.89 59.65 148.24 60.92C147.59 62.19 148.14 62.45 151.97 62.44C154.42 62.58 156.65 62.35 157.02 62.14C157.39 61.93 158.55 61.83 159.55 61.99C163.39 62.71 183.34 62.46 184.15 61.75C184.67 61.37 185.39 61.36 185.8 61.78C186.99 63.13 189.85 61.73 189 60.26C188.57 59.52 187.95 59.14 187.68 59.38V59.38ZM124.95 59.35C118.5 59.48 115.48 59.92 115.56 60.77C115.69 61.84 116.75 62.12 121.07 62.25C134.53 62.65 136.13 62.45 135.91 60.95C135.77 59.14 136.67 59.28 124.95 59.35ZM108.55 59.51C106.85 59.68 104.47 59.66 103.36 59.57C95.29 59.17 84.46 59.79 82.96 60.73C81.81 61.56 81.2 61.5 81.09 60.75C81.03 59.8 79.65 59.54 75.75 59.42C72.93 59.49 70.22 59.59 69.85 59.81C68.6 60.61 70.06 61.73 71.98 61.52C73.05 61.39 74.77 61.54 75.81 61.92C78.66 62.89 91.93 62.41 93.26 61.32C93.98 60.58 94.29 60.56 94.06 61.43C93.7 62.78 100.17 62.96 101.07 61.55C101.42 61.02 102.02 61.08 102.43 61.5C103.65 62.76 112.36 62.3 113.23 60.98C114.2 59.67 113.04 59.36 108.55 59.51V59.51ZM4.19 43.66C2.93 44.88 3.49 47.82 5.03 48.23C6.77 48.7 7.05 47.63 6.03 44.88C5.46 43.58 4.86 43.11 4.19 43.66ZM55.21 59.6C53.87 59.97 53.74 60.45 54.38 61.55C55.09 62.77 55.5 62.78 56.34 61.56C57.68 59.65 57.23 59.01 55.21 59.6V59.6ZM58.84 61.51C58.74 61.9 59.75 62.37 61.18 62.45C62.58 62.62 63.75 62.52 63.8 62.32C63.85 62.13 62.84 61.65 61.49 61.29C60.13 60.92 58.97 61.03 58.84 61.51V61.51ZM45.75 59.35C43.59 59.29 41.69 59.82 41.56 60.3C41.4 60.88 40.77 60.92 40.08 60.42C39.38 59.92 37.21 59.55 35.34 59.56C33.45 59.67 30.78 59.58 29.35 59.51C27.92 59.44 25.95 59.84 24.97 60.41C23.5 61.26 23.45 61.45 25.09 61.89C28.59 62.73 52.47 62.5 52.92 61.58C53.57 60.3 50.31 59.33 45.75 59.35V59.35ZM3.57 52.19C3.61 52.82 4.17 53.8 4.7 54.15C5.32 54.52 5.72 54.22 5.59 53.15C5.38 51.22 3.45 50.29 3.57 52.19ZM3.8 58.25C3.08 60.95 4.02 62.45 5.55 61C6.54 60.02 6.41 55.85 5.45 55.59C4.97 55.46 4.24 56.61 3.8 58.25ZM13.59 60.36C12.68 61.05 11.39 61.22 10.7 60.72C10.1 60.25 9.47 60.29 9.34 60.77C8.9 62.41 12.63 62.79 15.49 61.38C17.71 60.42 17.91 60.06 16.78 59.66C15.91 59.43 14.48 59.77 13.59 60.36V60.36Z" fill="white"/>
<path d="M69.1829 25.756L75.6939 17.885V16.1H65.6809V18.344H72.0729L65.5449 26.215V28H75.9489V25.756H69.1829ZM86.4192 12.683H83.5632L81.2682 15.131H83.3422L86.4192 12.683ZM86.6062 28H89.4962L84.1752 16.1H81.4552L76.1512 28H78.9732L80.0272 25.45H85.5522L86.6062 28ZM80.9112 23.359L82.7982 18.803L84.6852 23.359H80.9112ZM101.271 28L98.6018 24.175C100.149 23.512 101.05 22.203 101.05 20.418C101.05 17.749 99.0608 16.1 95.8818 16.1H90.7308V28H93.4848V24.685H95.8818H96.0178L98.3128 28H101.271ZM98.2618 20.418C98.2618 21.71 97.4118 22.492 95.7288 22.492H93.4848V18.344H95.7288C97.4118 18.344 98.2618 19.109 98.2618 20.418ZM108.519 28.204C111.902 28.204 113.908 26.266 113.908 22.764V16.1H111.188V22.662C111.188 24.923 110.219 25.858 108.536 25.858C106.87 25.858 105.884 24.923 105.884 22.662V16.1H103.13V22.764C103.13 26.266 105.136 28.204 108.519 28.204ZM124.772 28H127.985L122.766 21.404L127.696 16.1H124.636L119.366 21.659V16.1H116.629V28H119.366V24.991L120.964 23.325L124.772 28ZM137.573 28H140.463L135.142 16.1H132.422L127.118 28H129.94L130.994 25.45H136.519L137.573 28ZM131.878 23.359L133.765 18.803L135.652 23.359H131.878ZM49.6346 47.756L56.1456 39.885V38.1H46.1326V40.344H52.5246L45.9966 48.215V50H56.4006V47.756H49.6346ZM67.0579 50H69.9479L64.6269 38.1H61.9069L56.6029 50H59.4249L60.4789 47.45H66.0039L67.0579 50ZM61.3629 45.359L63.2499 40.803L65.1369 45.359H61.3629ZM84.5955 50L84.5615 38.1H82.3005L77.9145 45.495L73.4605 38.1H71.1825V50H73.7665V43.013L77.2515 48.742H78.4925L81.9945 42.86L82.0115 50H84.5955ZM93.0968 37.131L95.3408 34.683H93.4028L91.9238 35.958L90.4448 34.683H88.5068L90.7508 37.131H93.0968ZM90.1558 47.79V45.036H95.6808V42.894H90.1558V40.31H96.4118V38.1H87.4188V50H96.6328V47.79H90.1558ZM102.734 50.204C106.134 50.204 107.783 48.504 107.783 46.515C107.783 42.146 100.864 43.659 100.864 41.466C100.864 40.718 101.493 40.106 103.125 40.106C104.179 40.106 105.318 40.412 106.423 41.041L107.273 38.95C106.168 38.253 104.638 37.896 103.142 37.896C99.7591 37.896 98.1271 39.579 98.1271 41.602C98.1271 46.022 105.046 44.492 105.046 46.719C105.046 47.45 104.383 47.994 102.751 47.994C101.323 47.994 99.8271 47.484 98.8241 46.753L97.8891 48.827C98.9431 49.643 100.847 50.204 102.734 50.204ZM111.964 50H114.718V40.344H118.526V38.1H108.156V40.344H111.964V50ZM128.202 38.1V45.325L122.286 38.1H120.008V50H122.728V42.775L128.661 50H130.922V38.1H128.202ZM142.441 34.683H139.585L137.29 37.131H139.364L142.441 34.683ZM142.628 50H145.518L140.197 38.1H137.477L132.173 50H134.995L136.049 47.45H141.574L142.628 50ZM136.933 45.359L138.82 40.803L140.707 45.359H136.933ZM154.947 38.1V45.325L149.031 38.1H146.753V50H149.473V42.775L155.406 50H157.667V38.1H154.947ZM160.312 37.131H162.386L165.463 34.683H162.607L160.312 37.131ZM160.482 50H163.236V38.1H160.482V50Z" fill="white"/>
</svg>
