<svg width="168" height="153" fill="none" xmlns="http://www.w3.org/2000/svg"><path d="M69.54 9.906c.2 4.9.7 10.8.9 13 .4 2.9.2 2.6-.7-1.3-.6-2.9-1.7-5.6-2.3-6-.6-.4-1.5-2.2-1.9-3.9-.3-1.8-1.1-3.6-1.7-3.9-.7-.5-.9.2-.4 2.2.5 1.6 1 5.5 1.2 8.7.2 3.2.8 7.5 1.4 9.5 2.5 9.1.5 5.5-3.5-6.2-7.8-23-8.8-18.5-2.1 8.8 4.1 16.5 4.4 18.2 3 20.7-1.7 3.3-3.6 4.7-4.2 3.1-.2-.7-.9-1.8-1.6-2.5-.6-.6-1.8-2.8-2.6-4.7-2.9-7.4-14.3-29.4-14.7-28.4-.2.6.6 3.5 1.7 6.4 1.6 4.2 1.8 5.1.6 4-2.6-2.1-1.9-.1 5.4 14.4 3.8 7.7 6.8 14.1 6.7 14.3-.2.1-2.4-3.4-5-8-5.1-9-14.7-23.7-14.7-22.4 0 .4 1.8 4.3 4 8.7 2.2 4.4 3.8 8 3.5 8-.2 0-2.3-2.5-4.6-5.5-2.3-3.1-4.4-5.3-4.7-5.1-.2.3.8 2.7 2.2 5.3l2.7 4.8-3.5-3.4c-2-1.9-3.6-3.1-3.6-2.7 0 .5-1-.4-2.2-2-1.2-1.6-2.5-3.4-3-3.9-1.4-1.6.3 2.6 3 7.2 1.3 2.4 2.2 4.3 1.9 4.3-.2 0-2.1-2.1-4.2-4.8-4.7-5.9-4-2.9 1.6 7.5 2.2 4 3.7 7.3 3.4 7.3-.2 0-3.6-4.6-7.3-10.3-3.8-5.6-9-12.5-11.6-15.2l-4.7-5 5.1 8.5c6.9 11.3 14.7 22.2 24.8 34.2 11.8 14.1 13.5 17.1 12.7 21.9-.4 2.1-1.1 3.9-1.6 3.9s-7.4-6.2-15.4-13.7c-16.6-15.8-27.1-25-30-26.5-1.1-.6 1.2 2.3 5.1 6.3 6.6 6.8 10.4 11.9 8.9 11.9-.4 0-2.1-1.1-3.8-2.4-8.7-6.4-8.2-4.8 1.4 4.6 10.9 10.7 14.8 15 11.9 13.2-.9-.5-5.1-3.3-9.4-6.2-4.3-3-7.9-5.2-8.1-5-.2.2 3.2 3 7.5 6.2 4.3 3.3 7.7 6.3 7.4 6.7-.2.4 2.7 2.8 6.5 5.4 6.9 4.7 8 6.8 3.9 7.8-1.8.5-7-2.1-20.7-10.6-7.5-4.6-1.4.7 7.5 6.4 5.1 3.4 9.4 6.3 9.4 6.5 0 .6-3.5-1-8.4-3.9-6.5-3.7-18.6-9.8-18.6-9.3 0 .2 3 2.6 6.7 5.2 8.9 6.2 9.7 7.1 4.3 4.5l-4.5-2.2 2.5 2.2c2.4 2.1 2.4 2.1.3 1.5-1.3-.4-2.3-.5-2.3-.3 0 .3 6.6 4.5 14.8 9.3 19 11.4 19.1 11.5 18.5 16.7-.3 2.3-.7 4.4-.9 4.5-.2.3-8.1-2.8-19.3-7.5-.9-.4-1.2-.2-.7.5.4.7-1.6.3-4.6-.9-12.7-5-18.1-6.9-18.6-6.4-.8.8.8 2.1 6.8 5.5 3 1.7 4.4 2.8 3 2.5-2.2-.5-2.3-.4-.7.5 1 .7 2.6.9 3.5.5.9-.3 1.3-.3.9.2-.4.4 1.1 1.8 3.5 3 3.8 2.1 3.5 2.2-2.2.6-.8-.2 2 1.4 6.3 3.7 4.2 2.2 7.7 4.4 7.7 4.9 0 2.3 31.2 12.4 42.6 13.8l4.2.5-.5-4.9c-.3-2.6-1.3-7.3-2.3-10.3-1.9-5.8-2.4-14.7-2-35.1.1-7.6-.2-11.9-.9-12.3-.6-.4-1.1-1.7-1.1-2.9-.1-2.1-.1-2.1-1.1-.3-.6 1-.9 3.6-.6 5.8.7 5 0 6.8-2.4 6.8-1.9 0-4.1-3.7-3.2-5.2.2-.4.8-3.1 1.3-6 .4-2.9 1.1-6.1 1.5-7 .5-1.3.2-1.5-1.5-1.1-1.8.5-2 .2-1.5-1.8.7-2.7 1.4-9.1 1.4-13.2.1-1.5.9-3.5 1.9-4.5 1-1 2.1-2.6 2.5-3.5.4-1 1.8-1.7 3.4-1.7 5.3 0 5.9-1.3 5-10.1-.4-4 .6-5.3 4.6-5.7 2-.2 3.5.4 4.8 1.9 2.2 2.6 2.5 4.1.6 3.3-1-.4-1.3.8-1.3 4.6.1 2.7.4 5 .9 5 .7 0 1.1-1.6.8-3.9-.2-.7.2-1 .8-.6.6.3 1.1 2.7 1.1 5.3.1 3.8.3 4.3 1.1 2.9.6-1 .9-2.4.6-3.1-.3-.8.6-1.2 3.2-1 5.4.2 8.099 1.3 7.999 3.2 0 1.1-.3 1.2-.6.4-.6-1.5-4.9-1.6-5.9-.1-.4.8.1.9 1.5.4 1.6-.5 2.7-.1 4.1 1.5 1 1.2 2.4 1.9 2.9 1.5.6-.3 1.1-.1 1.1.4 0 .6-.4 1.1-1 1.1-.5 0-1 .5-1 1.1 0 .8.4.8 1.5-.1.8-.6 1.8-.9 2.3-.6.5.3 1.2-1.3 1.6-3.6.5-3 .3-4.5-.9-5.8-.8-.9-1.5-2-1.5-2.5s-.8-1.8-1.7-2.9c-1.7-2-1.7-2 0-.7.9.7 1.7 1 1.7.5 0-.4.5-.3 1.2.4s2 1.2 2.9 1.2c6.6 0 5.3 19.7-1.4 20.2-1.2 0-3 .1-3.9 0-1-.1-1.8.2-1.8.7 0 .5-1.1 1.1-2.3 1.5-2.6.6-6.3 8.1-4.6 9.2.5.3.5 1.2 0 2.3-.5.9-.9 5.2-.8 9.3.1 4.2 0 7.6-.3 7.5-.3-.1-1.6.6-3 1.5-2.4 1.7-2.4 1.8-.5 3.3 1.1.8 1.6 1.5 1.1 1.5-.4 0-.1 1.2.9 2.6 1.2 1.9 1.4 2.9.6 3.3-.8.5-.5 1.5.9 3.1 2.1 2.4 2.7 6.5 1 7.5-.5.3-1 1.5-1 2.6 0 1-.5 1.9-1 1.9-.6 0-1 .7-.8 1.6.2.9-.4 1.8-1.2 2-.8.2-2.7.6-4.2 1l-2.8.6-.1-10.8c-.1-6-.4-12.3-.8-13.9-1.2-5.5-3.4 11.7-2.6 20.4.8 8.3 1.6 10.8 2.5 7.3.5-2 .7-2.1 3.2-.8 1.5.8 2.9 1.1 3.3.8.3-.4.3.2-.1 1.3-.5 1.1-.9 1.4-1.2.7-.5-1.7-4.2-1.5-4.2.3 0 .8.7 1.5 1.6 1.5 1.1 0 1.4.6.9 2.1-.5 1.5-.4 1.9.4 1.5 1.4-.9 1.4-.9 0 5.4-1 4.5-1.4 5.1-3.1 4.6-1.5-.3-1.8-.2-1.1.5.8.8 3.5.6 8.9-.4 4.4-.9 9.9-1.8 12.4-2.2 4.7-.6 11.1-2.6 12-3.6 1.1-1.3 5-2.9 7-2.9 4.5 0 28.4-8.2 30.1-10.4 2.3-2.7.8-3.1-5.4-1.2-2.6.8-4.4 1-4.1.4.4-.6-.1-.8-1.2-.5-1.1.3-3.9.8-6.4 1.2l-4.5.7 5.5-3.7c9.9-6.6 10.4-7.8 1.9-4.4-9.5 3.7-10.4 4-9.4 3.2.6-.5 4.8-2.7 9.5-4.8 15.3-6.9 32.6-17.4 22.5-13.5-5 1.9-3.7.3 1.6-1.9 2.8-1.2 4.9-2.5 4.6-2.7-.3-.3-2.2.2-4.3 1.1-2.2.9-5.9 1.8-8.4 2-2.5.2-6.7 1.4-9.3 2.5-8.6 3.8-5.9 1.7 5-4 5.8-3 10.2-5.5 9.7-5.7-.5-.2-4.4 1-8.6 2.6-4.3 1.6-7.8 2.7-7.8 2.6 0-.2 2.7-2 6-4.1 5.7-3.5 8.3-5.7 4.1-3.4-1.1.5-2.8 1-3.9 1-1.6 0-5.1 1.9-19.5 10.7-.7.4-6.7-5.6-6.7-6.8 0-.7 10.3-7.4 23.8-15.4 8.5-5.1 15.9-11.1 14.9-12.1-.2-.3-3.7 1.1-7.7 3.1-8 4-10.1 4.2-4.3.3 5-3.4 14.9-12.5 14.3-13.1-.3-.3-4.8 2.3-10 5.8-5.2 3.4-9.9 6-10.3 5.8-.4-.3-1.9.2-3.2 1.1-2.4 1.6-6.1 2.3-4 .8 1.8-1.2 8.8-10.2 8-10.2-.4 0-2.8 1.7-5.4 3.8-2.5 2.1-5.3 4.2-6.1 4.6-.8.5.8-1.1 3.5-3.4 6.8-5.8 19.5-19 19.5-20.2 0-.5-2.3 1-5.2 3.4l-5.2 4.3 4.5-6.5c2.5-3.6 5.4-8.1 6.6-10.1 1.1-2 2.8-4.9 3.8-6.5 1.9-3.1-3.6 2.3-13 12.7-2.7 3.1-4.5 4.8-3.9 4 2.7-3.9 6.6-11.2 6.2-11.7-.3-.2-4 3.8-8.2 9.1-7.5 9.3-9.8 11.5-7.6 7.5 2.2-4.1 0-1.8-6.4 6.9-8.8 11.8-8.4 11.5-14.1 9.1-4.6-2-4.7-2.1-3.1-4.3 6.1-8.7 9.5-14.1 13.1-21.2 2.2-4.4 5.1-9.6 6.4-11.5l2.3-3.5-2.6 3c-3.6 4.2-4 2.7-1-4 3.1-7.2 5.4-13.8 4.9-14.3-.2-.2-2.7 3.3-5.5 7.7-4.8 7.5-7.5 10.8-5 6 2-3.6 4-10 3-9.4-.6.4-2 2.4-3.1 4.7-3 5.8-3.2 4.2-.4-2.9 3.2-7.8 5.7-17.8 5.3-20.6-.3-1.7-1-1-3.5 3.8-1.7 3.3-4.3 8.9-5.8 12.4-1.4 3.5-3.3 7-4.1 7.8-.8.8-1.9 2.4-2.5 3.5-1.8 3.3-2 1.4-.4-2.6 2.5-5.9-.3-3.1-3 3-1.3 3-2.9 5.4-3.4 5.4-1.5 0-1.4-1.2.9-7 2-5 3.9-17.1 2.5-15.8-.4.3-1.7 3.9-3 8-2.6 8.1-3.4 5.6-1-3.2.8-3 1.5-6.9 1.4-8.5v-3l-1.3 2.5c-.8 1.4-2.2 5-3.1 8.1-1.4 4.6-2.2 5.6-3.9 5.5-1.6-.1-2.2-.9-2.6-3.6l-.5-3.5-1.4 4.8c-.8 2.6-1.6 4.6-1.8 4.3-.2-.2 0-3.9.6-8.3 1.4-10.6 1.9-19.5 1.1-18.6-.6.7-2.1 5.8-6.5 22.3l-1.4 5.5.4-5.5c.4-3.8.2-4.9-.4-3.5-.5 1.1-1 3.5-1 5.2-.1 3.5-1.5 4.4-2.5 1.7-.3-.9-.6-5.5-.6-10.2-.1-8.1-.2-8.5-1.5-6.2-.8 1.4-1.4 3.2-1.5 4.2 0 .9-.6 1.8-1.2 2.1-.9.2-1.3 2.7-1.3 7.4 0 3.9-.3 6.9-.7 6.6-.5-.2-.8-1.3-.8-2.4 0-1-.4-2.7-.9-3.7-.5-.9-1.9-6.9-3-13.2l-2-11.5.4 9zm-1.8 28.7c-.3.8-.6.5-.6-.6-.1-1.1.2-1.7.5-1.3.3.3.4 1.2.1 1.9zm31 36c-.3.8-.6.5-.6-.6-.1-1.1.2-1.7.5-1.3.3.3.4 1.2.1 1.9zm-.1 8.4c-.4 1.4-1.1 2.2-1.7 1.8-.8-.4-.7-1 0-1.7.6-.6 1.2-2.5 1.2-4.2.1-2.5.3-2.6.6-.6.3 1.2.2 3.4-.1 4.7zm-36.1-1.6c.3.5.1 1-.4 1-.6 0-1.1-.5-1.1-1 0-.6.2-1 .4-1 .3 0 .8.4 1.1 1zm-.8 7.7c-.3 1-.5.2-.5-1.7s.2-2.7.5-1.8c.2 1 .2 2.6 0 3.5zm-33.6-1c1.3 1.7 1.3 1.7-.6.3-1.1-.8-2.2-1.6-2.4-1.7-.2-.2 0-.3.6-.3s1.7.8 2.4 1.7zm83.199 2.3c.3 1.1.2 2-.2 2-.5 0-1.6-.9-2.6-2-1.8-1.9-1.7-2 .2-2 1.2 0 2.3.8 2.6 2zm10.7 4c0 .5-.5 1-1.1 1-.5 0-.7-.5-.4-1 .3-.6.8-1 1.1-1 .2 0 .4.4.4 1zm-74.1 17.2c4.6 3.2 7.9 5.8 7.2 5.8-1.5 0-18-11.2-18.1-12.3 0-1 .4-.7 10.9 6.5zm71.3-3c-.7.7-1.2.8-1.2.2 0-1.4 1.2-2.6 1.9-1.9.2.3-.1 1.1-.7 1.7zm-57.2.3c.7.8.8 1.5.2 1.5-.5 0-1.5-.7-2.2-1.5-.7-.8-.8-1.5-.2-1.5.5 0 1.5.7 2.2 1.5zm4 13.5c1.2 2.3.7 2.5-2.1.9-1.1-.5-1.7-1.4-1.4-2 1-1.5 2.3-1.1 3.5 1.1zm-5.2 2.2c.7.9.3 2-1.2 3.5-2 2.2-2.3 2.2-4.5.7l-2.3-1.6 2.9-1.8c3.4-2.3 3.8-2.3 5.1-.8zm46.7 5.6c-.6.6-6.5-3.1-6.5-4 0-.5 1.5.2 3.4 1.4 1.9 1.3 3.3 2.4 3.1 2.6zm3.1 7.3c.7 1.2-1.5 3.1-3.1 2.6-.5-.2-1.1-1.1-1.3-2-.4-1.9 3.2-2.4 4.4-.6zm6.8 2.8l2.8 1.9-2.2 1.2c-1.9 1-2.6.9-4.2-.8-1.1-1.1-1.7-2.5-1.4-3.1 1-1.5 1.6-1.4 5 .8zm-69.4 1.2l3.5 2-3-.6c-1.6-.4-3.7-1.3-4.5-2.1-2-2-.1-1.7 4 .7z" fill="#F4FF42"/><path d="M81.04 48.306c0 .6.5 1.3 1 1.6.6.3 1-.1 1-.9 0-.9-.4-1.6-1-1.6-.5 0-1 .4-1 .9zM74.74 55.806c-.4 1-.5 2.1-.2 2.4.9.9 1.7-.6 1.3-2.5-.3-1.7-.4-1.7-1.1.1zM68.54 58.506c-.4.6-.4 1.3-.1 1.6.3.4.6.1.6-.5s.8-1.3 1.8-1.5c1.5-.4 1.5-.5 0-.6-.9 0-2 .4-2.3 1zM.14 76.706c.6.6 13.4 9.4 23.6 16.4 8.8 6.1 11 7.3 9.9 5.4-1.1-1.8-31.8-22.1-33.4-22.1-.3 0-.3.2-.1.3zM88.34 91.106c-1.8.9-3.3 2-3.3 2.5 0 1.2 1.4 1 2.8-.4 2-2 2.5-.1.8 3.3-1.9 3.9-1.5 4.6 1.9 3.1 2.1-1 2.5-1.8 2.5-5.7 0-5-.1-5.1-4.7-2.8zM87.54 127.406c.3.5 1.1 1 1.6 1 .6 0 .7-.5.4-1-.3-.6-1.1-1-1.6-1-.6 0-.7.4-.4 1zM10.04 130.406c.8.5 2 1 2.5 1 .6 0 .3-.5-.5-1s-1.9-1-2.5-1c-.5 0-.3.5.5 1zM82.24 142.406c0 1.4.2 1.9.5 1.2.2-.6.2-1.8 0-2.5-.3-.6-.5-.1-.5 1.3z" fill="#F4FF42"/></svg>