<svg width="168" height="125" fill="none" xmlns="http://www.w3.org/2000/svg"><path d="M103.7 1.077c-.4.3-.7 1.5-.7 2.5 0 1.7-1.3 1.8-22.2 1.8-27.6 0-35.1.6-40.7 3.2-5.1 2.3-10.2 1.9-18.3-1.3-7.9-3.1-14.9-2-19.7 3.2-2.1 2.3-2.1 2.7-2.1 47.7v45.4l3.3 3.3c4.4 4.4 12.3 6.1 21.1 4.6 8.5-1.5 16.6-1.3 19.6.4 2 1.1 7.6 1.4 26.6 1.5 19.5 0 24.4.3 26 1.5 1.4 1.1 5.1 1.4 15 1.5 12 0 13.2.2 15 2.1 5.9 6.5 19.7 8.6 28 4.2 4.7-2.5 10.1-8.2 12-12.9 3.3-7.8.4-21.6-5.5-26.8-1.2-1.1-2.1-3.1-2.1-4.6 0-2.1-.7-3-3-4l-3-1.2v-23.3c0-22.4.1-23.3 2-23.8 1.8-.5 2-1.4 2-10.2 0-9.3-.1-9.7-2.9-12.6-2.9-2.8-3.2-2.9-13.6-2.9-6.8 0-10.4.4-10 1 .3.6 5 1 10.6 1 13.3 0 13.9.6 13.9 13.1 0 8.6-.1 9-2 8.4-2-.6-2-.2-2 24.9v25.4l3.5 1.2c2 .7 3.5 1.8 3.5 2.7 0 1.1-.5 1.3-1.7.8-6.2-2.6-11.2-3.5-15.5-3-3.3.5-4.8.3-4.8-.4s.7-1.4 1.5-1.7c1.3-.5 1.5-4.5 1.5-27.5v-26.9h-35v-8c0-9.3.6-10 9-9.5 3 .1 6.4-.1 7.5-.6 1.2-.5-1.4-.8-7.1-.8-5-.1-9.4.2-9.7.6zm-81.6 8.4c5.3 2.7 16.6 3 20.3.6 2.2-1.5 6-1.7 31.1-1.7H102v15h8c4.7 0 8 .4 8 1s-3.7 1-9 1h-9v-7H2.9l.3-3.3c.2-2.7 1-3.6 4.8-5.5 5.5-2.7 8.9-2.8 14.1-.1zm3.9 13.9c0 3.7-1.2 5-4.6 5-3.2 0-3.4-.2-3.4-3.4 0-3.2.3-3.5 3.3-3.8 4-.4 4.7-.1 4.7 2.2zm8 1c0 3.9-.1 4-3.5 4-3.3 0-3.5-.2-3.5-3.4 0-3.2.3-3.5 3.3-3.9 1.7-.2 3.3-.5 3.5-.5.1-.1.2 1.6.2 3.8zm36 .6c0 3.2-.2 3.4-3.4 3.4-3.1 0-3.4-.3-3.8-3.5-.2-2-.3-3.7-.1-3.8.1-.2 1.8-.1 3.8.1 3.2.4 3.5.7 3.5 3.8zm9 0c0 3.3-.1 3.4-4 3.4s-4-.1-4-3.3c0-4.2.2-4.4 4.5-3.9 3.2.4 3.5.7 3.5 3.8zm18.5-.6c0 3.3-.2 3.5-3.7 3.8-3.7.3-3.8.2-3.8-3.1 0-4.2.7-4.9 4.5-4.5 2.7.3 3 .6 3 3.8zm-54.5.5c0 3.3-.2 3.5-3.5 3.5s-3.5-.2-3.5-3.5.2-3.5 3.5-3.5 3.5.2 3.5 3.5zm9 0c0 3.3-.2 3.5-3.5 3.5s-3.5-.2-3.5-3.5.2-3.5 3.5-3.5 3.5.2 3.5 3.5zm9 0c0 3.3-.2 3.5-3.5 3.5s-3.5-.2-3.5-3.5.2-3.5 3.5-3.5 3.5.2 3.5 3.5zm27 0c0 3.3-.2 3.5-3.5 3.5s-3.5-.2-3.5-3.5.2-3.5 3.5-3.5 3.5.2 3.5 3.5zm49-.5c0 .6-3.5 1-8.5 1s-8.5-.4-8.5-1 3.5-1 8.5-1 8.5.4 8.5 1zm-3.7 3.7c-2.3.2-6.4.2-9 0-2.6-.2-.7-.3 4.2-.3 5 0 7.1.1 4.8.3zm3.7 3.3c0 .6-3.5 1-8.5 1s-8.5-.4-8.5-1 3.5-1 8.5-1 8.5.4 8.5 1zm-52 24.5v23.6l-15.2-.3c-11.5-.2-15.3-.6-15.2-1.6.1-.6.2-11.1.3-23.2l.1-22h30v23.5zm33-2.3c0 11.7-.3 22.3-.6 23.5-.6 2.3-.9 2.3-15.5 2.3H87v-47h31v21.2zm19-19.2c0 .6-3.5 1-8.5 1s-8.5-.4-8.5-1 3.5-1 8.5-1 8.5.4 8.5 1zm0 4c0 .6-3.5 1-8.5 1s-8.5-.4-8.5-1 3.5-1 8.5-1 8.5.4 8.5 1zm0 3c0 .6-3.5 1-8.5 1s-8.5-.4-8.5-1 3.5-1 8.5-1 8.5.4 8.5 1zm0 4c0 .6-3.5 1-8.5 1s-8.5-.4-8.5-1 3.5-1 8.5-1 8.5.4 8.5 1zm0 3c0 .6-3.5 1-8.5 1s-8.5-.4-8.5-1 3.5-1 8.5-1 8.5.4 8.5 1zm-3.7 3.7c-2.3.2-6.4.2-9 0-2.6-.2-.7-.3 4.2-.3 5 0 7.1.1 4.8.3zm3.7 3.3c0 .6-3.5 1-8.5 1s-8.5-.4-8.5-1 3.5-1 8.5-1 8.5.4 8.5 1zm0 3.5c0 1.2-1.6 1.5-8.5 1.5-7.8 0-9.6-.5-7.8-2.3.3-.4 4.2-.7 8.5-.7 6.3 0 7.8.3 7.8 1.5zm-.2 3.7c-.3.9-2.9 1.3-8.3 1.3s-8-.4-8.2-1.3c-.4-.9 1.7-1.2 8.2-1.2 6.5 0 8.6.3 8.3 1.2zm.2 3.8c0 .6-3.5 1-8.5 1s-8.5-.4-8.5-1 3.5-1 8.5-1 8.5.4 8.5 1zm-124 4c0 1.1-.4 2-1 2-.5 0-1-.9-1-2s.5-2 1-2c.6 0 1 .9 1 2zm4 0c0 1.1-.4 2-1 2-.5 0-1-.9-1-2s.5-2 1-2c.6 0 1 .9 1 2zm4 0c0 1.1-.4 2-.9 2-1.4 0-2.3-1.8-1.6-3 1-1.7 2.5-1.1 2.5 1zm4 0c0 1.1-.4 2-1 2-.5 0-1-.9-1-2s.5-2 1-2c.6 0 1 .9 1 2zm4 0c0 1.1-.4 2-.9 2-1.4 0-2.3-1.8-1.6-3 1-1.7 2.5-1.1 2.5 1zm4 0c0 1.1-.7 2-1.5 2s-1.5-.9-1.5-2 .7-2 1.5-2 1.5.9 1.5 2zm4 .1c0 2.4-2.3 2.1-2.8-.4-.2-1 .3-1.7 1.2-1.7 1 0 1.6.9 1.6 2.1zm4.5-.1c0 .7-.6 1.5-1.2 1.7-.8.3-1.3-.4-1.3-1.7 0-1.3.5-2 1.3-1.8.6.3 1.2 1.1 1.2 1.8zm4.5 0c0 1.1-.7 2-1.5 2s-1.5-.9-1.5-2 .7-2 1.5-2 1.5.9 1.5 2zm91-.5c0 1.3-1.4 1.5-8.2 1.3-5.4-.2-8.3-.7-8.6-1.6-.3-.9 1.8-1.2 8.2-1.2 7.1 0 8.6.3 8.6 1.5zm-127.6 1c-.4.8-.8 1.5-1 1.5-.2 0-.4-.7-.4-1.5s.4-1.5 1-1.5c.5 0 .7.7.4 1.5zm40.9 0c.1.5-.6 1.1-1.5 1.3-1.1.2-1.8-.3-1.8-1.3 0-1.7 3-1.8 3.3 0zm85.2 2.5c-.3.5-4 1-8.1 1-4.3 0-7.4-.4-7.4-1s3.4-1 8.1-1c5.1 0 7.8.4 7.4 1zM9 74.877c0 .8-.4 1.5-.9 1.5s-1.1-.7-1.5-1.5c-.3-.9 0-1.5.9-1.5.8 0 1.5.7 1.5 1.5zm4 0c0 .8-.4 1.5-1 1.5-.5 0-1-.7-1-1.5s.5-1.5 1-1.5c.6 0 1 .7 1 1.5zm4 0c0 .8-.4 1.5-1 1.5-.5 0-1-.7-1-1.5s.5-1.5 1-1.5c.6 0 1 .7 1 1.5zm4 0c0 .8-.4 1.5-1 1.5-.5 0-1-.7-1-1.5s.5-1.5 1-1.5c.6 0 1 .7 1 1.5zm4 0c0 .8-.4 1.5-1 1.5-.5 0-1-.7-1-1.5s.5-1.5 1-1.5c.6 0 1 .7 1 1.5zm4 0c0 .8-.4 1.5-1 1.5-.5 0-1-.7-1-1.5s.5-1.5 1-1.5c.6 0 1 .7 1 1.5zm4 0c0 .8-.7 1.5-1.5 1.5s-1.5-.7-1.5-1.5.7-1.5 1.5-1.5 1.5.7 1.5 1.5zm4 0c0 .8-.7 1.5-1.5 1.5s-1.5-.7-1.5-1.5.7-1.5 1.5-1.5 1.5.7 1.5 1.5zm4.4 0c-.4.8-1 1.5-1.5 1.5s-.9-.7-.9-1.5.7-1.5 1.5-1.5c.9 0 1.2.6.9 1.5zm4.6 0c0 .8-.7 1.5-1.5 1.5s-1.5-.7-1.5-1.5.7-1.5 1.5-1.5 1.5.7 1.5 1.5zm4.8-.3c-.7 1.9-3.8 2.2-3.8.4 0-1 .9-1.6 2.1-1.6 1.2 0 1.9.5 1.7 1.2zm78.7 1.8c-.3.5-2.6 1-5.1 1-2.4 0-4.4-.5-4.4-1 0-.6 2.3-1 5.1-1 3.1 0 4.8.4 4.4 1zm24.8 5.2c6.2 3.4 10 9.5 10.5 16.7.5 7.2-1 12.1-5.1 16.8-14.6 16.6-42.2 2.7-37.6-18.9 3.2-14.6 19.1-21.8 32.2-14.6zm-30.9.3c-1.4 1.4-2.6 2.5-2.8 2.5-.2 0-.3-1.1-.3-2.5 0-2.1.4-2.5 2.8-2.5h2.8l-2.5 2.5zm-29.4 8.5v9H2v-18h92v9zm28-2.6c0 .2-.7 2-1.5 3.9-.8 2-1.5 5.9-1.5 8.7 0 2.8.7 6.7 1.5 8.7.8 1.9 1.5 3.8 1.5 4.2 0 1-23.4.1-24.4-1-.6-.5-11.8-.9-25.3-.9-20.4 0-24.9-.3-27.5-1.6-3.8-2-9.6-2.1-20.7-.6-10.3 1.4-15.1.4-19.5-4.1l-3.1-3.2 47.8-.3 47.7-.2v-14h12.5c6.9 0 12.5.2 12.5.4z" fill="#F4FF42"/><path d="M62.6 36.477c-5 4-5.9 7.7-5.6 23.9 0 1.8.3 2.1.9 1.2.7-1.1.9-1.1 1.4.2.4.9 1.3 1.6 2.2 1.6.8 0 1.5.5 1.5 1 0 .6 1.6 2 3.5 3.1 1.9 1.2 3.5 2.8 3.4 3.7 0 1.1-.2 1.2-.6.4-.8-2-2.2-1.4-1.6.8.4 1.6 1.4 2 4.3 2 4.2 0 6.6-2 5.6-4.7-.8-2.1 1.4-11.4 2.6-10.7.4.3 1.5-.2 2.4-1 1.1-1.2 1.5-3.2 1.2-8-.1-3.5-.6-6.2-1-6-.5.3-.8-.1-.8-.9s-1.8-3.1-4-5.1c-3.3-3-4.8-3.6-8.4-3.6-2.9 0-5.2.7-7 2.1zm12.4 14.9c-1.9 1.3-3 1.3-3 0 0-.6 1-1 2.3-1 1.8 0 1.9.2.7 1zm-10 1c0 .5-1 1-2.2 1-1.9 0-2-.2-.8-1 1.9-1.3 3-1.3 3 0zm-4 5.6c1.3 4 .6 6-.8 2.3-2-5.4-2.4-7.1-1.4-6.5.6.3 1.6 2.2 2.2 4.2zM56 77.377c0 .6 5.3 1 14 1s14-.4 14-1-5.3-1-14-1-14 .4-14 1zM88.2 53.677l-.2 20.8 13.7-.3 13.8-.3v-15.7l.1-15.7-2.8-2.1c-3.5-2.6-3.5-3.8 0-4.2 1.5-.2 2.6-.8 2.5-1.3-.2-.6-5-1.1-11.1-1.3-8.3-.2-11.2.1-12.7 1.2-1.2.9-1.5 1.5-.7 1.6.8 0 1 .5.5 1.2-1 1.7-1.2 33.8-.1 33.8.4 0 .8.4.8 1 0 .5-.7 1-1.5 1-1.2 0-1.5-3.2-1.8-20.3l-.2-20.2-.3 20.8zm15.8-9.1l3.5 3.1-3.3 1.5c-2.7 1.3-3.2 2.1-3.2 4.9 0 2-.4 3.2-1 2.8-.5-.3-1-1.9-1-3.4 0-2-.7-3.1-2.5-3.9-2.6-1.2-2.5-3.1.3-6.5 2.1-2.4 3.2-2.2 7.2 1.5zm5 11.3c0 1.3.3 3 .6 3.8.7 1.9-5.2 8.7-7.6 8.7-1 0-2-.9-2.3-2-.4-1.6.2-2.4 2.9-3.5 4.7-1.9 4.4-3.7-.6-3.1-4.1.4-5.8-1-1.7-1.6 1.5-.2 2.3-1.1 2.6-2.8.1-1.4.8-2.8 1.4-3.2 1.8-1.1 4.7 1.1 4.7 3.7zm-12 3.6c0 5.2-2.4 4.8-2.8-.4-.2-2.8.1-3.7 1.2-3.7 1.2 0 1.6 1.1 1.6 4.1zM88 77.377c0 .6 5.3 1 14 1s14-.4 14-1-5.3-1-14-1-14 .4-14 1zM138.5 86.877c-11.8 4.2-13.5 20-3 26.5 4.9 3 13.3 2.5 17.1-1.1 4.1-3.9 5.7-7.7 5.2-12.9-1-9.9-10.1-15.8-19.3-12.5zM4 84.777c0 2.2 6.5 2.6 7.9.4 1-1.6.7-1.8-3.4-1.8-3.2 0-4.5.4-4.5 1.4z" fill="#F4FF42"/><path d="M15 84.377c0 .5.5 1 1 1 1.2 0 1.3 2 .2 3.8-.7 1-2.2 1.1-6.5.4-5.2-.8-5.7-.7-5.7 1s.7 1.9 6.8 1.6l6.7-.3.3-4.3c.2-3.3 0-4.2-1.2-4.2-.9 0-1.6.4-1.6 1zM34.2 87.577l.3 4.3 6.3.3 6.2.3v-9.1H33.9l.3 4.2zm11.8-2.2c0 .5-2.5 1-5.5 1s-5.5-.5-5.5-1c0-.6 2.5-1 5.5-1s5.5.4 5.5 1zM52 87.877v4.5l19.8-.2 19.7-.3.3-4.3.3-4.2H52v4.5zM20.6 86.577c-1.2 4.5-.9 4.8 5.5 4.8h6l-.3-3.3c-.3-3.1-.4-3.2-5.4-3.5-4.6-.3-5.2-.1-5.8 2zm7.4 1.3c0 1.6-2.7 3.2-3.7 2.2-.3-.4-.3-1.3 0-2.2.8-2 3.7-2 3.7 0zM100.3 100.377c0 4.1.2 5.8.4 3.7.2-2 .2-5.4 0-7.5-.2-2-.4-.3-.4 3.8zM150 15.377c0 .5.5 1 1.1 1 .5 0 .7-.5.4-1-.3-.6-.8-1-1.1-1-.2 0-.4.4-.4 1z" fill="#F4FF42"/></svg>