<svg xmlns="http://www.w3.org/2000/svg" viewBox="0 0 120 120"><path d="M1 18.4l4.4 55.7c.1.8.6 1.5 1.4 1.8l22.9 7.3c.4.1.8.1 1.2 0l22.9-7.3c.8-.3 1.4-1 1.4-1.8l4.4-55.7c.1-1.2-.9-2.2-2.1-2.2H3c-1.2 0-2.1 1-2 2.2zm47.4 17.3H20.1l.9 7.9h26.9l-1.8 22.5-15.8 5-15.8-5-.9-11.8h8.3v5.8l8.6 2.3 8.6-2.3.7-9.2H13.3l-1.8-22.5H49l-.6 7.3z" fill="#e94d21"/><path d="M59.6 38.4L65 99.5l24.3 6.8 24.3-6.8 5.4-61.1H59.6zm47.8 20l-.7 7.7-2.1 23-15.4 4.3-15.4-4.3-1.1-12h7.5l.6 6.2 8.4 2.3 8.4-2.3 1.1-10.4-26.2.1-.7-7.1 27.7-.3.6-7.6H71l-.5-7.1h37.6l-.7 7.5z" fill="#438ecc"/></svg>