<svg version="1.1" id="Capa_1" xmlns="http://www.w3.org/2000/svg" x="0" y="0" viewBox="-49 141 512 512" xml:space="preserve"><style>.st0{fill:#534718}.st2{fill:#382600}.st4{fill:#fcfcfc}.st5{fill:#ede7ce}.st6{fill:#e0d6a0}.st7{fill:#cebf91}.st8{fill:#ff9800}.st9{fill:#ff7e00}.st10{fill:#6caa50}</style><path class="st0" d="M136.7 515.5h78.7v20.6h-78.7z"/><path fill="#3d3501" d="M136.7 515.5h19.8v20.6h-19.8z"/><path class="st2" d="M267.9 535.8H78.6c-2.8 0-5.1 2.3-5.1 5.1v25.6c0 2.8 2.3 5.1 5.1 5.1h189.3v-35.8z"/><path d="M93.3 566.4v-25.6c0-2.8 2.3-5.1 5.1-5.1H78.6c-2.8 0-5.1 2.3-5.1 5.1v25.6c0 2.8 2.3 5.1 5.1 5.1h19.8c-2.8 0-5.1-2.3-5.1-5.1z" fill="#291400"/><path class="st2" d="M379.2 216H-27c-12.1 0-22 9.9-22 22v256.6c0 12.1 9.9 22 22 22h294.9v-136c0-13.2 10.7-23.9 23.9-23.9h92.5c9.3 0 16.9-7.6 16.9-16.9V237.9c0-12-9.9-21.9-22-21.9z"/><path class="st4" d="M-26.6 465.5c0 1.7 1.4 3.1 3.1 3.1h291.4V363.8c0-3.9 3.1-7 7-7h103.9V266H-26.6v199.5z"/><path class="st5" d="M-6.8 465.5V266h-19.8v199.5c0 1.7 1.4 3.1 3.1 3.1h19.8c-1.7 0-3.1-1.4-3.1-3.1z"/><circle class="st0" cx="176.1" cy="492.5" r="13.8"/><path class="st6" d="M267.9 380.1h-53.4c-1.6 0-3 1.4-3 3v59.6c0 1.6 1.4 3 3 3h53.4v-65.6z"/><path class="st7" d="M231.3 442.8v-59.6c0-1.6 1.4-3 3-3h-19.8c-1.6 0-3 1.4-3 3v59.6c0 1.6 1.4 3 3 3h19.8c-1.7 0-3-1.4-3-3z"/><path class="st6" d="M274.9 356.8h46.6v-65.4c0-2.8-2.2-5-5-5H35.7c-2.8 0-5 2.2-5 5v66.5c0 2.8 2.2 5 5 5h232.2c.4-3.4 3.4-6.1 7-6.1z"/><path class="st7" d="M50.5 357.9v-66.5c0-2.8 2.2-5 5-5H35.7c-2.8 0-5 2.2-5 5v66.5c0 2.8 2.2 5 5 5h19.8c-2.7 0-5-2.2-5-5z"/><path class="st8" d="M375.7 242H-23.5c-1.7 0-3.1 1.4-3.1 3.1v22h405.4v-22c0-1.7-1.4-3.1-3.1-3.1z"/><path class="st9" d="M-3.7 242h-19.8c-1.7 0-3.1 1.4-3.1 3.1v22h19.8v-22c0-1.7 1.4-3.1 3.1-3.1z"/><path class="st10" d="M122.5 396H38.3c-4.1 0-7.5-3.4-7.5-7.5s3.4-7.5 7.5-7.5h84.2c4.1 0 7.5 3.4 7.5 7.5s-3.4 7.5-7.5 7.5zM122.5 420.5H38.3c-4.1 0-7.5-3.4-7.5-7.5s3.4-7.5 7.5-7.5h84.2c4.1 0 7.5 3.4 7.5 7.5s-3.4 7.5-7.5 7.5zM122.5 445H38.3c-4.1 0-7.5-3.4-7.5-7.5s3.4-7.5 7.5-7.5h84.2c4.1 0 7.5 3.4 7.5 7.5s-3.4 7.5-7.5 7.5zM188.6 396h-43.3c-4.1 0-7.5-3.4-7.5-7.5s3.4-7.5 7.5-7.5h43.3c4.1 0 7.5 3.4 7.5 7.5s-3.4 7.5-7.5 7.5zM188.6 420.5h-43.3c-4.1 0-7.5-3.4-7.5-7.5s3.4-7.5 7.5-7.5h43.3c4.1 0 7.5 3.4 7.5 7.5s-3.4 7.5-7.5 7.5zM188.6 445h-43.3c-4.1 0-7.5-3.4-7.5-7.5s3.4-7.5 7.5-7.5h43.3c4.1 0 7.5 3.4 7.5 7.5s-3.4 7.5-7.5 7.5z"/><path class="st0" d="M455 339.8c4.4 0 8 3.6 8 8v226.3c0 12.9-10.5 23.4-23.4 23.4H290.3c-12.9 0-23.4-10.5-23.4-23.4V363.2c0-12.9 10.5-23.4 23.4-23.4H455z"/><path class="st4" d="M288.6 566.1c-2.8 0-5-2.2-5-5V360.2c0-2.8 2.2-5 5-5h152.7c2.8 0 5 2.2 5 5v200.9c0 2.8-2.2 5-5 5H288.6z"/><path class="st5" d="M303.4 561.1V360.2c0-2.8 2.2-5 5-5h-19.8c-2.8 0-5 2.2-5 5v200.9c0 2.8 2.2 5 5 5h19.8c-2.7 0-5-2.2-5-5z"/><path class="st0" d="M355.6 586.1c-2.8 0-5-2.2-5-5v-1.9c0-2.8 2.2-5 5-5h18.7c2.8 0 5 2.2 5 5v1.9c0 2.8-2.2 5-5 5h-18.7z"/><path class="st8" d="M446.3 374.5v-14.3c0-2.8-2.2-5-5-5H288.6c-2.8 0-5 2.2-5 5v14.3h162.7z"/><path class="st9" d="M308.4 355.2h-19.8c-2.8 0-5 2.2-5 5v14.3h19.8v-14.3c0-2.8 2.3-5 5-5z"/><g><path class="st10" d="M399 465.9h-68.2c-4.1 0-7.5-3.4-7.5-7.5s3.4-7.5 7.5-7.5H399c4.1 0 7.5 3.4 7.5 7.5 0 4.2-3.3 7.5-7.5 7.5zM399 489.1h-68.2c-4.1 0-7.5-3.4-7.5-7.5s3.4-7.5 7.5-7.5H399c4.1 0 7.5 3.4 7.5 7.5s-3.3 7.5-7.5 7.5zM399 512.2h-68.2c-4.1 0-7.5-3.4-7.5-7.5s3.4-7.5 7.5-7.5H399c4.1 0 7.5 3.4 7.5 7.5s-3.3 7.5-7.5 7.5z"/></g><path class="st6" d="M430.8 433.3c0 2.8-2.2 5-5 5H304.1c-2.8 0-5-2.2-5-5V392c0-2.8 2.2-5 5-5h121.7c2.8 0 5 2.2 5 5v41.3z"/><path class="st7" d="M318.9 433.3V392c0-2.8 2.2-5 5-5h-19.8c-2.8 0-5 2.2-5 5v41.2c0 2.8 2.2 5 5 5h19.8c-2.7.1-5-2.2-5-4.9z"/><path class="st6" d="M412.8 550.4c0 2.8-2.2 5-5 5h-85.7c-2.8 0-5-2.2-5-5v-16.9c0-2.8 2.2-5 5-5h85.7c2.8 0 5 2.2 5 5v16.9z"/><path class="st7" d="M336.9 550.4v-16.9c0-2.8 2.2-5 5-5h-19.8c-2.8 0-5 2.2-5 5v16.9c0 2.8 2.2 5 5 5h19.8c-2.7 0-5-2.2-5-5z"/></svg>