<svg version="1.1" id="Слой_1" xmlns="http://www.w3.org/2000/svg" x="0" y="0" viewBox="0 0 120 120" xml:space="preserve"><style>.st1{fill:#020203}</style><path d="M0 0h120v120H0V0z" fill="#f6df1c"/><path class="st1" d="M31.6 100.3l9.2-5.6c1.8 3.1 3.4 5.8 7.2 5.8 3.7 0 6-1.4 6-7.1V55.1h11.3v38.5c0 11.7-6.8 17-16.8 17-9.1 0-14.3-4.7-16.9-10.3M71.4 99.1l9.2-5.3c2.4 3.9 5.6 6.8 11.1 6.8 4.7 0 7.7-2.3 7.7-5.6 0-3.9-3.1-5.2-8.2-7.5l-2.8-1.2c-8.1-3.5-13.5-7.8-13.5-17 0-8.5 6.4-14.9 16.5-14.9 7.2 0 12.3 2.5 16 9L98.6 69c-1.9-3.5-4-4.8-7.2-4.8-3.3 0-5.4 2.1-5.4 4.8 0 3.4 2.1 4.8 6.9 6.8l2.8 1.2c9.6 4.1 15 8.3 15 17.7 0 10.2-8 15.7-18.7 15.7-10.5.2-17.3-4.8-20.6-11.3"/></svg>