<svg xmlns="http://www.w3.org/2000/svg" viewBox="0 0 482.555 482.555"><path d="M403.31 213.303l78.908-24.094-53.007-178.297c-2.409-8.433-10.842-12.649-19.275-10.24l-175.887 53.61 24.094 80.113c3.012-6.024 8.433-10.842 15.059-12.649 15.059-4.819 30.72 6.024 31.925 22.287.602 9.638-4.819 19.275-13.252 23.492-8.433 4.216-16.866 3.614-24.094-.602l24.094 80.113 78.908-24.094c-4.216 7.228-4.819 16.264-.602 24.094 4.216 8.433 13.854 13.854 23.492 13.252 16.264-1.205 26.504-17.468 22.287-32.527-1.807-6.627-6.626-12.049-12.65-14.458z" fill="#fcd462"/><path d="M217.183 154.875c-7.228 0-13.252 3.012-18.071 7.831V79.581H15.395C6.962 79.581.336 86.207.336 95.242v185.525h82.522c-4.819-4.819-7.831-10.842-7.831-18.071 0-15.661 14.456-28.311 30.72-24.094 9.035 2.409 16.866 10.24 18.673 19.275 1.807 9.035-1.205 17.468-7.228 22.889h82.522v-83.727c5.421 6.024 13.854 9.035 22.889 7.228 9.638-1.807 16.866-9.035 19.275-18.673 3.013-16.263-9.034-30.719-24.695-30.719z" fill="#64798a"/><path d="M315.367 280.766c6.024 5.421 9.035 13.854 7.228 22.889-1.807 9.638-9.035 17.468-18.673 19.275-16.264 3.614-30.72-8.433-30.72-24.094 0-7.228 3.012-13.854 7.831-18.071h-81.92v83.727c-5.421-6.024-13.854-9.035-22.889-7.228-9.638 1.807-16.866 9.035-19.275 18.673-3.614 16.264 8.433 30.72 24.094 30.72 7.228 0 13.252-3.012 18.071-7.831v83.727H382.83c8.433 0 15.059-6.626 15.059-15.661V280.766h-82.522z" fill="#e56353"/><path d="M176.223 356.663c9.035-1.807 17.468 1.807 22.889 7.228v-83.125H116.59c6.024-5.421 9.035-13.854 7.228-22.889-1.807-9.638-9.035-17.468-18.673-19.275-16.264-3.614-30.72 8.433-30.72 24.094 0 7.228 3.012 13.854 7.831 18.071H.336v185.525c0 8.433 6.626 15.661 15.059 15.661h183.718v-83.727c-4.216 4.819-10.842 7.831-18.071 7.831-15.661 0-27.708-14.456-24.094-30.72 2.409-9.036 10.24-16.867 19.275-18.674z" fill="#ebf0f3"/></svg>