<svg version="1.1" id="Слой_1" xmlns="http://www.w3.org/2000/svg" x="0" y="0" viewBox="0 0 120 120" xml:space="preserve"><style>.st0{fill:#d34b47}.st1{fill:#fff}.st5{fill:#b05d52}.st6{fill:#c5e3d9}</style><path class="st0" d="M87.3 77.4l4.2-9.9 2.7-2.3s-4.4.2-10.8-2.1C77 60.8 73.8 58 73.8 58l.8 3.8-2.8 10.1c-.4 1.1 2.8 3.1 7.1 4.7 4.3 1.5 8 1.8 8.4.8M102.2 29.5l3.1-4.6L115 20l-1.3-2.2-10.3 5.2-3.6 5.5-3.3-1.2c-7.9-2.8-14.6-4.2-15-3.1-.4 1.1 5.7 4.3 13.5 7.1 7.9 2.8 14.6 4.2 15 3.1.3-.9-2.9-2.9-7.8-4.9"/><path class="st1" d="M100.5 32s-.3 0-1.1-.3-1.4-.5-1.5-.8v-.3c.1-.1.2-.2.3-.2l.1.2h-.1c0 .1.8.5 1.4.7.6.2 1.4.4 1.5.3 0 0 0-.1-.1-.1l.2-.1c.1.1.3.3.2.4-.3.4-.7.3-.9.2"/><path class="st0" d="M115 20c.3-.1.2-.8-.2-1.4-.4-.6-.8-1-1.1-.9-.3.1-.2.8.2 1.4.4.6.8 1 1.1.9M95.8 52.6c.4-1.7 4.9-2.7 4-3.1-2.1-.6-3.9 1.3-5.8 3.3-.7.7-3.3 4-4 3.2-.7-.8 2.3-3.1 3.5-4.7-.8.2-3.7 1.2-3.7-.7-1.2.5-3.4.2-2.4-1.9-.8.7-2.4 1.6-3.6.6-1.5-1.3 3.3-6 3.9-5.5.6.5-.7 1.5-1.1 2-.9.9-1.9 2.1-1.7 2.6.5.7 3.1-1 3.1-1 .5-.3 2.4-2.8 3.1-2.2.6.6-3.3 3.4-2.6 4.5.1.2 1 .3 1.7-.1.4-.2.6-1 2.6-3.2s4-5 4.7-4.5c.6.5-.5 1.9-1 2.4-2.2 2.4-6 6.3-4.9 6.3 1.1 0 1.7.2 3-.6 1.4-.8 2-2.7 2.7-2.4.6.3.3.8 0 1.2.9-.5 3.9-1.2 3.9.5 0 2.1-5 3.2-3.9 3.4 1.1.2 3-.2 4.1-.9l8-16.5s-2.5.9-14.7-3.5-13.4-6.5-13.4-6.5l-4 16.3c1.7-2.1 5.6-6.4 8.7-5.1 1.4.6 2.4 4.1.7 3.6-.7-.2-.3-1.7-1-2.2-.6-.4-1.6-.2-2.3.2-1.5.7-5.3 4.1-5.8 6.3-.6 2.8 4 .4 5-.5.7-.6 1.7-2.8 2.5-2.2.8.5-1 2.5-2.3 4.3-1.5 2-2.7 4.3-3.5 3.7-.8-.6 1.7-3 1.8-3.6-1.1.5-3.3 1.9-4.9.2l-2.5 10.1s1.9 3.1 10 6 11.6 1.8 11.6 1.8l5.3-10.8c-1.4.6-5.3 1.2-4.8-.8"/><g><path d="M21.1 59.6l-.3 2.5s0 .9.7.9c.8-.2.6-.9.5-1.2l-.9-2.2z" fill="#9fd8ee"/><path d="M85.3 40.2v-.3c-6.8-.4-13.6.5-17.7 1.3.3-2.6.1-5.6-.4-8.9-.7-4.7-2.9-8.2-6-10.7.2-1.7.4-5.4-2-9.7 0 0-3.2-.6-9.5 5.3-2.8-.3-5.8-.3-8.7.1-3.2.5-6.4 1.4-9.3 2.6-8-4.2-11-2.6-11-2.6-1.3 5.7.6 9.6 1.1 10.6-2.1 3.1-3 6.9-2.4 11.2.5 3.3 1.2 6.2 2.5 8.6-4.2.4-10.7 1.4-16.9 3.7v.3c6.2-2.3 12.8-3.3 16.9-3.7l.9 1.5c-4.1.7-10.9 2.3-17.3 5.2l.1.3C12 52 19 50.5 23 49.8c3.1 4.4 8.4 6.8 17 6.6-1.1 1-2.1 2.7-2.3 5.2-1.5 1.1-6.5 3.9-10.4-1.4 0 0-2.2-3.1-5.6-2.9 0 0-3.3.4.1 2.2 0 0 2.3.8 4.4 4.6 0 0 3 6.7 12.1 3.1l1 7.1s.2 2.6-1.9 3.7c0 0-1.2 1.1.3 1.5 0 0 6.2-.3 5.4-5.6L42 66s-.7-3.1.6-4.3l1.8 12.8s.3 3.1-1 4.5c0 0-.7 2 1.4 1.2 0 0 4.1-1.2 3.6-6.4l-1.8-13 1-.1 2 13c.9 5.1 5.2 5.2 5.2 5.2 2.3.2 1-1.6 1-1.6-1.7-.9-2.2-4-2.2-4l-1.8-12.7c1.6 1 1.8 3.9 1.8 3.9l1.1 7.8c.8 5.3 6.8 3.9 6.8 3.9 1.3-.7-.1-1.5-.1-1.5-2.3-.5-2.9-3-2.9-3L57 61.2c-.6-4-2.5-5.9-4.2-6.7 9-2.3 12.9-6 14.2-11.1 4-.5 11.3-1 18.4.1l.1-.3c-7.1-1-14.3-.5-18.4-.1.1-.5.2-1 .3-1.6 4.2-.8 11-1.7 17.9-1.3z" fill="#020303"/><path d="M58.3 33.3c2.2 1.6 3.7 3.7 4 6.1 1.6 11.4-6.4 12.8-16.3 14.2-9.9 1.4-18.2 1-19.6-9.1-.3-2.4.5-4.8 2.1-7C31.3 34 37 34.9 43.2 34s11.4-3.3 15.1-.7z" fill="#f6cdb3"/><path class="st1" d="M38.4 43.4c.5 3.1-.9 5.9-2.9 6.2-2.1.3-4.1-2-4.5-5.1-.5-3.1.9-5.9 2.9-6.2 2.1-.3 4.1 2 4.5 5.1z"/><path class="st5" d="M37.3 43.7c.3 2.1-.6 3.9-1.9 4.1-1.4.2-2.7-1.3-3-3.4s.6-3.9 1.9-4.1c1.3-.2 2.7 1.3 3 3.4z"/><path class="st1" d="M58.5 40.6c.5 3.1-.9 5.9-2.9 6.2-2.1.3-4.1-2-4.5-5.1-.5-3.1.9-5.9 2.9-6.2 2-.4 4.1 1.9 4.5 5.1z"/><path class="st5" d="M57.3 40.8c.3 2.1-.6 3.9-1.9 4.1-1.4.2-2.7-1.3-3-3.4s.6-3.9 1.9-4.1c1.4-.2 2.7 1.3 3 3.4zM46.1 47.5c.1.5-.3 1-.8 1.1-.5.1-1-.3-1.1-.9-.1-.6.3-1 .8-1.1.6-.1 1.1.3 1.1.9zM43.4 50.4c-.1-.2 0-.3.1-.4.1-.1.3 0 .4.1.4.7 1.1 1.1 1.8 1 .7-.1 1.3-.7 1.4-1.4 0-.2.2-.3.3-.3.2 0 .3.2.2.4-.2 1-1 1.8-1.9 1.9-.9.1-1.9-.4-2.3-1.3z"/><path class="st6" d="M23.3 57.9c0 .3-.2.5-.6.6-.3 0-.7-.1-.7-.4 0-.3.2-.5.6-.6.3-.1.6.1.7.4zM25.2 58.7c0 .3-.2.5-.6.6-.3 0-.7-.1-.7-.4 0-.3.2-.5.6-.6.4-.1.7.1.7.4zM26.5 59.9c0 .3-.2.5-.6.6-.3 0-.7-.1-.7-.4 0-.3.2-.5.6-.6.4-.1.7.1.7.4zM27.8 61.3c0 .3-.2.5-.6.6-.3 0-.7-.1-.7-.4 0-.3.2-.5.6-.6.3 0 .6.2.7.4zM29.1 62.6c0 .3-.2.5-.6.6-.3 0-.7-.1-.7-.4 0-.3.2-.5.6-.6s.6.2.7.4zM30.8 63.7c0 .3-.2.5-.6.6-.3 0-.7-.1-.7-.4 0-.3.2-.5.6-.6.3-.1.6.1.7.4zM33 64.2c0 .3-.2.5-.6.6-.3 0-.7-.1-.7-.4 0-.3.2-.5.6-.6.3 0 .7.2.7.4zM35.1 63.9c0 .3-.2.5-.6.6-.3 0-.7-.1-.7-.4s.2-.5.6-.6c.4 0 .7.2.7.4zM37.2 63.3c0 .3-.2.5-.6.6-.3 0-.7-.1-.7-.4 0-.3.2-.5.6-.6.3-.1.6.1.7.4z"/></g><path d="M91.7 85.7c-1.1.4-1 .4-1.6-.6-.7-1.3-1.1-2.7-1.1-4.2 0-1.3.3-2.5.8-3.7.4-.9-.1-1.3-.9-1.3-.6-.1-1.2-.1-1.8 0-1.5.2-1.7.3-2.1 1.8-.2.9-.4 1.8-.8 2.6-1 2.1-2.1 4-3.3 6-.2.4-.4.7-.7 1-.8-1.3-1.1-2.6-1.2-4.1-.1-1.4.4-2.8.8-4.1.2-.4 0-.7-.4-.9-.2-.1-.4-.2-.5-.2-1-.1-2-.1-2.9.2-.4.1-.7.4-.8.8-.2.9-.5 1.9-.9 2.8-1.1 2.5-2.2 4.9-3.3 7.4-.9 2.1-1.9 4.3-3 6.3-.1.1-.1.4-.3.3-.2-.1-.1-.3-.1-.5-.1-1.2.3-2.4.5-3.5.4-1.8.9-3.6 1.4-5.5.1-.5-.1-.9-.5-1.1-.6-.4-1.2-.4-1.9.1.1-.7.1-1.4.1-2-.1-1.5-.7-2.4-1.9-2.6-.9-.2-1.7.1-2.4.5-1.8.8-3.2 2.1-4.4 3.7-.1.2-.3.3-.5.5-2.3 1.2-4.5 2.5-6.8 3.7-.2.1-.4.1-.6-.1-1.1-1.2-2.5-2.2-3.8-3.2-1.8-1.4-3.7-2.8-5.3-4.5-.9-1-1.7-2.1-2.1-3.4-.6-2.2-.2-4.2.9-6.1 1.2-2.3 3.1-4 5.1-5.6 3.2-2.5 6.7-4.5 10.4-6.1 4.2-1.8 8.5-3 13-2.8 1.8.1 3.6.4 5.2 1.3 1.1.6 1.9 1.5 2.1 2.9.3 1.6-.1 3-.8 4.4-1.6 3.1-4 5.2-6.9 6.9-2.4 1.4-5 2.3-7.8 2.8-1.5.3-3.1.4-4.6.2-1.8-.3-3.4-.9-4.6-2.3-.1-.2-.3-.3-.6-.2-.2.1-.2.3-.2.5 0 .1.1.3.1.4.3.9.9 1.5 1.6 2.1 1.8 1.5 4 1.9 6.3 2 2.2 0 4.5-.2 6.6-.8 4.9-1.2 9.1-3.6 12.1-7.7 1.8-2.5 2.9-5.2 2.8-8.3-.1-2-.7-3.7-2.2-5.2-1.7-1.7-3.8-2.5-6.1-3-2.5-.6-5.1-.6-7.7-.3-2.3.3-4.5.7-6.6 1.5-3.3 1.1-6.5 2.5-9.5 4.2-3.1 1.7-6.1 3.7-8.6 6.2-2.3 2.2-4.2 4.6-5.3 7.6-.5 1.3-.8 2.6-.5 4 .4 1.8 1.3 3.4 2.5 4.8 1.8 2.1 3.9 3.8 6.1 5.4 1.8 1.3 3.7 2.5 5.4 3.8.5.4.5.4-.1.7-.7.3-1.3.7-2 1.1-2.7 1.5-5.2 3.1-7.3 5.4a9.5 9.5 0 00-2.1 3.8c1.7 2.5 3.7 4.9 6 6.9 3.9-.3 6.9-2.3 9.1-5.7 1.1-1.6 1.6-3.5 1.8-5.4.2-1.7 0-3.4-.5-5-.1-.3-.4-.6-.3-.8.1-.2.5-.4.7-.5 1.1-.6 2.1-1.2 3.2-1.9 0 .2 0 .4-.1.5-.6 2.3-1.1 4.6-.6 7 .3 1.5.8 2.9 1.7 4.1 1 1.3 3.1 1.1 4 0 .8-1.1 1.4-2.3 2-3.6L64 95c-.1.8-.1 1.6 0 2.4 0 .8.2 1.6.6 2.3.5.8 1.4 1.1 2.3.6.9-.5 1.5-1.3 2-2.1 2.1-3.6 4-7.3 5.6-11.2.3-.8.7-1.6 1.1-2.6.1.3.1.5.1.7.4 1.8 1 3.6 1.9 5.2.2.4.2.6-.1.9-.8 1.1-1.8 2.2-2.7 3.3-.8.9-1.6 1.8-2.2 2.8-.6.9-.2 1.8.7 2 .3.1.6.1.9.1 1.7 0 3.2-.5 4.7-1.3 1.9-1.1 3.1-2.7 3-5 0-1.1-.3-2.1-.7-3-.1-.2-.1-.4 0-.6 1.3-1.9 2.5-4 3.6-6 .2-.4.3-.8.6-1.1 0 .1.1.2.1.3.3 1.7.8 3.4 1.7 5 .2.4.1.6-.2.9-1.1 1-2.1 2.1-2.9 3.4-.6 1-1 2.1-1 3.3 0 1.3 1 2.1 2.3 1.8 1.3-.3 2.6-.9 3.7-1.7 2.4-1.8 3.2-3.7 2.4-6.3-.3-1-.3-1 .7-1.3 2.3-.7 4.6-.7 6.9-.3.3 0 .5.1.8.1.1-.8.2-1.7.3-2.5-2.6-.9-5.6-.5-8.5.6zm-47.9 18.5c-.7.2-1.3.3-2 .3-.9-.1-1.4-.7-1.5-1.6-.1-1.1.3-2 .7-3 .8-1.7 2.3-2.8 3.7-4 1.4-1.1 2.9-2 4.5-3 .5-.3.5-.3.6.3.1.7.3 1.4.2 2.1.1 3.9-2.7 7.7-6.2 8.9zm21.1-19.5c-.2 1.6-.8 3.2-1.3 4.7-.8 2.1-1.5 4.2-2.5 6.2-.2.5-.5.9-.8 1.3-.3.4-.6.3-.9-.1-.5-.8-.4-1.8-.5-2.5 0-3.5 1.2-6.3 3.1-8.8.5-.7 1.2-1.3 2.1-1.5.6-.2.9.1.8.7zm13.4 10.2c-.7 1.1-1.6 2-2.8 2.5-.1.1-.3.2-.4 0-.1-.1.1-.2.1-.3 1.2-1.3 2.3-2.5 3.3-3.9 0 0 .1 0 .1-.1.2.8 0 1.3-.3 1.8zm8 0c-.2.1-.4.2-.5.1-.2-.1-.1-.4-.1-.6.3-.9.6-1.7 1.1-2.5.4-.7.9-1.2 1.5-1.8.2-.2.3-.2.4.1.1.3.1.6.1 1-.1 1.8-1 3-2.5 3.7z" fill="#ce679a"/></svg>