<svg version="1.1" id="Layer_1" xmlns="http://www.w3.org/2000/svg" x="0" y="0" viewBox="0 0 97 98" xml:space="preserve"><style>.st0{fill:#f8f8f8}.st2{fill:#fff}.st4{fill:#fdbd39}.st5{fill:#f69833}.st7{fill:#ee6723}.st8{fill:#31c5f0}</style><circle class="st0" cx="26.6" cy="65" r="23.2"/><circle cx="26.6" cy="65" r="21.3" fill="#00bc87"/><path class="st2" d="M26.6 52.9c-4.6 0-9.1 8.6-9.1 15.1 0 5 4.1 9.1 9.1 9.1s9.1-4.1 9.1-9.1c0-6.6-4.5-15.1-9.1-15.1zm0 19.6c-2.5 0-4.5-2-4.5-4.5 0-3.4 2.3-7.6 4.5-7.6s4.5 4.2 4.5 7.6c0 2.5-2 4.5-4.5 4.5z"/><circle class="st0" cx="48.1" cy="30.2" r="23.2"/><circle cx="48.1" cy="30.2" r="21.6" fill="#f2d581"/><path class="st4" d="M36.3 35.1l-1.7.6-.1 5.1 5.9-2.2c-2-.6-3.5-1.8-4.1-3.5"/><path class="st5" d="M37.2 29.7l-6 2.2 3.3 3.9 1.7-.6c-.5-1.7-.1-3.6 1-5.5"/><path d="M47.3 22.4c-7.6 2.8-12.5 8.5-10.9 12.8l27.5-10c-1.7-4.4-9.1-5.6-16.6-2.8" fill="#fecf33"/><path class="st7" d="M52.9 37.9c7.6-2.8 12.5-8.5 10.9-12.8l-27.5 10c1.6 4.3 9 5.5 16.6 2.8"/><path class="st5" d="M63.8 25.1l-27.5 10c.5 1.5 2.6 2.2 5.5 2.2 2.8 0 6.4-.7 10.1-2.1 7.6-2.7 13-7.2 11.9-10.1"/><path class="st4" d="M58.3 22.9c-2.8 0-6.4.7-10.1 2.1-7.6 2.8-12.9 7.3-11.9 10.2l27.5-10c-.5-1.6-2.6-2.3-5.5-2.3"/><path class="st7" d="M56.8 41.1c-.8 0-2-.7-3.5-2.2-1.8-1.7-3.9-4.2-5.9-7s-3.6-5.7-4.6-8c-1.1-2.5-1.2-4.1-.4-4.6.2-.1.4-.2.6-.2.6 0 1.8.5 4 2.7v.9l-.2-.2c-2.4-2.4-3.5-2.7-3.8-2.7-.1 0-.2 0-.2.1-.3.2-.4 1.4.7 3.8 1 2.3 2.5 5 4.5 7.8 1.9 2.8 4 5.2 5.8 6.9 1.9 1.8 2.8 2 3.1 2 .1 0 .2 0 .2-.1.3-.2.3-1.5-.8-4.1l-.1-.1.1-.1c.1-.1.2-.1.3-.2l.1-.1.1.1c.8 1.9 1.6 4.2.6 4.9-.2.4-.4.4-.6.4zm0-.3c0 .2 0 0 0 0z"/><path class="st7" d="M53.1 37.8c-.2 2.5-.7 5.3-2 5.4H51c-.9 0-1.7-1.3-2.5-3.8-.7-2.4-1.3-5.6-1.6-9s-.3-6.7 0-9.2c.3-2.7 1-4.1 1.9-4.2h.1c.6 0 1.6.7 2.6 4.2l-.7.1c-.3-1.1-.7-2.1-1.1-2.7-.3-.6-.7-.9-.9-.9-.4 0-1 1-1.3 3.6-.3 2.4-.3 5.6 0 9s.9 6.6 1.6 8.9c.3 1.1.7 1.9 1 2.5.3.5.6.8.9.8.4 0 1.1-1 1.4-4.6l.7-.1"/><g><circle class="st0" cx="70.4" cy="67.8" r="23.2"/><circle class="st8" cx="70.4" cy="67.8" r="20.9"/><radialGradient id="SVGID_1_" cx="-287.666" cy="125.852" r=".005" gradientTransform="matrix(2291.6699 0 0 2218.75 659302.188 -279168.875)" gradientUnits="userSpaceOnUse"><stop offset="0" stop-color="#34364e" stop-opacity=".98"/><stop offset="1" stop-color="#0c0824"/></radialGradient><path d="M61.3 59.2h18.6v18H61.3v-18z" fill="url(#SVGID_1_)"/><path class="st8" d="M61.3 59.2h18.6v18H61.3v-18zM60.5 78h20.2V58.3H60.5V78zm13.7-11.6c-.7 0-.9.3-.9.6s.1.5 1 1c1.3.6 1.8 1.3 1.8 2.1 0 1.3-1 2.1-2.4 2.1-.6 0-1.2-.1-1.7-.4v-1.3c0-.1 0-.1.1 0 .5.3 1.1.5 1.7.5.7 0 .9-.3.9-.7 0-.3-.2-.6-1-1-1.2-.6-1.7-1.1-1.7-2.1 0-1.1.9-2 2.3-2 .5 0 1 0 1.5.2 0 0 .1.1.1.2v1.1s0 .1-.1.1c-.6-.2-1.1-.4-1.6-.4zm-7.3 1h.7c1 0 1.9-.3 1.9-1.7 0-1.1-.7-1.6-1.8-1.6h-.8v3.3zM65.4 63s.1-.1.2-.1h2.2c2.3 0 3.2 1.3 3.2 2.9 0 2.1-1.6 3-3.5 3h-.7V72s0 .1-.1.1h-1.3s-.1 0-.1-.1l.1-9z"/></g><g><circle class="st0" cx="47.9" cy="53.9" r="23.2"/><circle class="st2" cx="47.9" cy="53.9" r="20.9"/><path id="path0_fill" d="M42.8 69.4c2.8 0 5.2-2.3 5.2-5.2V59h-5.2c-2.8 0-5.2 2.3-5.2 5.2 0 2.9 2.3 5.2 5.2 5.2z" fill="#0acf83"/><path id="path1_fill" d="M37.6 53.9c0-2.8 2.3-5.2 5.2-5.2H48V59h-5.2c-2.9.1-5.2-2.2-5.2-5.1z" fill="#a259ff"/><path id="path1_fill_1_" d="M37.6 43.6c0-2.8 2.3-5.2 5.2-5.2H48v10.3h-5.2c-2.9.1-5.2-2.3-5.2-5.1z" fill="#f24e1e"/><path id="path2_fill" d="M47.9 38.4h5.2c2.8 0 5.2 2.3 5.2 5.2 0 2.8-2.3 5.2-5.2 5.2h-5.2V38.4z" fill="#ff7262"/><path id="path3_fill" d="M58.2 53.9c0 2.8-2.3 5.2-5.2 5.2s-5.2-2.3-5.2-5.2c0-2.8 2.3-5.2 5.2-5.2 2.9.1 5.2 2.4 5.2 5.2z" fill="#1abcfe"/></g></svg>