<svg version="1.1" id="Слой_1" xmlns="http://www.w3.org/2000/svg" x="0" y="0" viewBox="0 0 40.8 34" xml:space="preserve"><style>.st1{fill:#26292c}</style><path d="M36.5 16c-1 0-1.8.3-2.5.8v-9c0-.7-.6-1.2-1.2-1.2H24c.4-.7.7-1.4.7-2.3 0-2.4-1.9-4.3-4.3-4.3S16 1.9 16 4.3c0 .8.2 1.6.7 2.3H7.8c-.7 0-1.2.6-1.2 1.2v8.8c-.7-.4-1.5-.6-2.3-.6C1.9 16 0 17.9 0 20.3s1.9 4.3 4.3 4.3c.8 0 1.6-.2 2.3-.7v8.8c0 .7.6 1.2 1.2 1.2h9c.3-.2.5-.5.4-1.3-.3-.5-.5-1.2-.5-1.8 0-2 1.6-3.7 3.7-3.7s3.7 1.6 3.7 3.7c0 .7-.2 1.4-.6 1.9s-.2.8.4 1.2h8.8c.7 0 1.2-.6 1.2-1.2v-9c.7.5 1.6.8 2.5.8 2.4 0 4.3-1.9 4.3-4.3.1-2.3-1.8-4.2-4.2-4.2z" fill="#ffcd05"/><path class="st1" d="M16.2 17c-.1-.1-.2-.1-.3-.1L12.8 19l-.1.1c-.1.1 0 .2.1.3l3.1 2.1c.1.1.2 0 .3-.1.1-.1 0-.2-.1-.3l-2.8-1.9 2.9-1.9c.1 0 .1-.2 0-.3zM24.6 21.6c.1.1.2.1.3.1l3.1-2.1.1-.1c.1-.1 0-.2-.1-.3L25 17c-.1-.1-.2 0-.3.1-.1.1 0 .2.1.3l2.8 1.9-2.9 1.9c-.2.1-.2.2-.1.4zM19 22.3c-.1 0-.1-.2-.1-.3l2.6-5.5c0-.1.2-.1.3-.1.1 0 .1.2.1.3l-2.6 5.5c0 .1-.2.1-.3.1z"/></svg>