<svg id="Layer_1" xmlns="http://www.w3.org/2000/svg" viewBox="0 0 47.2 24.8"><style>.st0{fill:#6181b6}</style><g id="XMLID_435_"><path id="XMLID_34318_" class="st0" d="M14 9.3h-1.5l-.8 4.4h1.2c1 0 1.7-.2 2.2-.5.4-.3.8-.9.9-1.8.1-.8.1-1.3-.2-1.6-.2-.2-.6-.5-1.8-.5z"/><path id="XMLID_34317_" class="st0" d="M34.7 9.3h-1.5l-.8 4.4h1.2c1 0 1.7-.2 2.2-.5.4-.3.8-.9.9-1.8.1-.8.1-1.3-.2-1.6-.3-.2-.7-.5-1.8-.5z"/><path id="XMLID_650_" class="st0" d="M23.6.3C10.9.3.6 5.7.6 12.4s10.3 12.1 23 12.1 23-5.4 23-12.1S36.3.3 23.6.3zm1.5 16c-.1 0-.2 0-.3-.1-.1-.1-.1-.2-.1-.3l1-5.4c.1-.7 0-.9 0-.9-.1-.1-.3-.2-1.1-.2h-1.8L21.6 16c0 .2-.2.3-.4.3h-2.6c-.1 0-.2 0-.3-.1-.1-.1-.1-.2-.1-.3l.5-2.4c-.3.5-.7 1-1.1 1.4-.6.5-1.2.9-1.9 1.1-.7.2-1.5.3-2.6.3h-2l-.6 2.9c0 .2-.2.3-.4.3H7.6c-.1 0-.2 0-.3-.1-.1-.1-.1-.2-.1-.3L9.6 7c0-.2.2-.3.4-.3h5c1.6 0 2.8.4 3.6 1.3.4.5.7 1.1.8 1.7l1.2-6c0-.2.2-.3.4-.3h2.6c.1 0 .2 0 .3.1.1.1.1.2.1.3l-.5 2.8h1.9c1.6 0 2.7.3 3.3.9.7.6.9 1.6.6 2.8l-1.1 5.6c0 .2-.2.3-.4.3h-2.7zM40 11.7c-.1.6-.3 1.2-.6 1.7s-.7 1-1.1 1.4c-.6.5-1.2.9-1.9 1.1-.7.2-1.5.3-2.6.3h-2l-.6 2.9c0 .2-.2.3-.4.3h-2.6c-.1 0-.2 0-.3-.1-.1-.1-.1-.2-.1-.3l2.5-12c0-.2.2-.3.4-.3h5.1c1.6 0 2.8.4 3.6 1.3.7.9.9 2.2.6 3.7z"/></g></svg>