<svg width="146" height="146" fill="none" xmlns="http://www.w3.org/2000/svg"><path d="M73 0l3.439 7.39L80.63.4l2.647 7.709 4.9-6.514 1.826 7.944 5.554-5.966.987 8.09 6.147-5.352.135 8.15 6.673-4.68-.717 8.118 7.125-3.957-1.562 8 7.501-3.192-2.39 7.793 7.793-2.39-3.192 7.5 8-1.561-3.957 7.125 8.119-.717-4.681 6.673 8.15.135-5.353 6.147 8.091.987-5.966 5.554 7.944 1.826-6.514 4.9 7.709 2.647-6.99 4.192L146 73l-7.39 3.439 6.99 4.192-7.709 2.647 6.514 4.9-7.944 1.826 5.966 5.554-8.091.987 5.353 6.147-8.15.135 4.681 6.673-8.119-.717 3.957 7.125-8-1.562 3.192 7.501-7.793-2.39 2.39 7.793-7.501-3.192 1.562 8-7.125-3.957.717 8.119-6.673-4.681-.135 8.15-6.147-5.353-.987 8.091-5.554-5.966-1.826 7.944-4.9-6.514-2.647 7.709-4.192-6.99L73 146l-3.439-7.39-4.192 6.99-2.647-7.709-4.9 6.514-1.826-7.944-5.554 5.966-.987-8.091-6.147 5.353-.135-8.15-6.673 4.681.717-8.119-7.125 3.957 1.562-8-7.5 3.192 2.39-7.793-7.794 2.39 3.192-7.501-8 1.562 3.957-7.125-8.119.717 4.68-6.673-8.149-.135 5.353-6.147-8.091-.987 5.966-5.554-7.944-1.826 6.514-4.9-7.71-2.647 6.991-4.192L0 73l7.39-3.439L.4 65.37l7.709-2.647-6.514-4.9 7.944-1.826-5.966-5.554 8.09-.987-5.352-6.147 8.15-.135L9.78 36.5l8.118.717-3.957-7.125 8 1.562-3.192-7.5 7.793 2.39-2.39-7.794 7.5 3.192-1.561-8 7.125 3.957L36.5 9.78l6.673 4.68.135-8.149 6.147 5.353.987-8.091 5.554 5.966 1.826-7.944 4.9 6.514L65.37.399l4.192 6.991L73 0z" fill="#F3BC3D"/></svg>