<svg version="1.1" id="Слой_1" xmlns="http://www.w3.org/2000/svg" x="0" y="0" viewBox="0 0 459 105" xml:space="preserve"><style>.st0,.st1,.st2,.st3{fill-rule:evenodd;clip-rule:evenodd;fill:#a9a9a9}.st4{enable-background:new}.st5{fill:#a9a9a9}</style><g id="Mastercard-SecureCode" transform="translate(172 19)"><g id="Shape"><path class="st0" d="M159 30.4c.1-1.5 1.3-2.7 2.9-2.6 1.6.1 2.7 1.3 2.7 2.8s-1.3 2.7-2.8 2.7c-1.6 0-2.9-1.3-2.8-2.9zm2.7 2.2c.9.1 1.8-.4 2.1-1.3.4-.8.2-1.8-.4-2.4s-1.6-.9-2.4-.5c-.8.4-1.4 1.1-1.4 2 0 1.2 1 2.2 2.1 2.2zm-.4-.9h-.6v-2.6h1c.2 0 .4 0 .6.1.2.2.3.4.3.6 0 .3-.2.5-.4.6l.4 1.1h-.7l-.4-1h-.4l.2 1.2zm0-1.4h.3c.1 0 .2 0 .4-.1.1-.1.1-.2.1-.3 0-.1-.1-.2-.1-.3-.1 0-.2-.1-.4 0h-.3v.7zM119.4 11.2l-.8 4.9c-1.3-.7-2.7-1.1-4.1-1.2-3.4 0-5.9 3.5-5.9 8.5 0 3.4 1.6 5.5 4.3 5.5 1.4-.1 2.7-.5 3.9-1.2l-.8 5.2c-1.3.4-2.7.6-4.1.7-5 0-8.1-3.7-8.1-9.8 0-8.1 4.3-13.7 10.4-13.7.7 0 1.4.1 2.1.2l1.9.5c.6.2.8.2 1.2.4zM104 14.5h-.5c-1.5 0-2.4.8-3.8 3l.4-2.8h-4.2l-2.8 18.4h4.7c1.6-11.2 2.1-13.2 4.3-13.2h.3c.3-1.9.9-3.7 1.6-5.4zM76.3 32.9c-1.1.4-2.2.6-3.3.6-2.4 0-3.7-1.4-3.7-4.1 0-.5 0-1.1.1-1.6l.3-1.8.2-1.5 2-12.5h4.6l-.5 2.7h2.4l-.7 4.5h-2.4l-1.2 7.7c0 .3-.1.6-.1.8 0 .9.5 1.4 1.6 1.4.4 0 .8 0 1.2-.2l-.5 4zM58 20.5c0 2.3 1.1 3.9 3.5 5.1 1.9.9 2.2 1.2 2.2 2 0 1.1-.8 1.7-2.6 1.7-1.4 0-2.8-.3-4.1-.7l-.6 4.2h.2l.8.2c.3.1.7.1 1.2.2 1.1.1 2 .2 2.5.2 4.9 0 7.1-2 7.1-6.1.2-2.2-1.2-4.3-3.3-5.1-1.9-.9-2.1-1.1-2.1-2 0-1 .8-1.5 2.3-1.5 1.1 0 2.2.1 3.3.3l.7-4.2c-1.4-.2-2.7-.3-4.1-.4-5.2-.1-7 2.7-7 6.1zM156.3 33.1h-4.4l.2-1.8c-1 1.3-2.6 2.1-4.3 2-3.4 0-5.6-3-5.6-7.6 0-6.1 3.4-11.3 7.5-11.3 1.8 0 3.2.8 4.4 2.5l1-6.5h4.6l-3.4 22.7zm-6.9-4.3c2.2 0 3.7-2.6 3.7-6.2 0-2.3-.9-3.6-2.5-3.6-2.1 0-3.6 2.6-3.6 6.2.1 2.4.9 3.6 2.4 3.6zM91 32.7c-1.6.5-3.2.7-4.8.7-5.2 0-7.9-2.8-7.9-8.2 0-6.3 3.4-11 8.1-11 3.8 0 6.2 2.6 6.2 6.7 0 1.5-.2 3-.6 4.5h-9.2v.6c0 2.2 1.4 3.2 4.1 3.2 1.7 0 3.3-.4 4.8-1.2l-.7 4.7zm-2.6-11v-.9c0-1.5-.8-2.4-2.2-2.4-1.4 0-2.5 1.2-2.9 3.3h5.1zM39.5 33.1h-4.7l2.7-17.4-5.9 17.4h-3.2L28 15.8l-2.8 17.3h-4.3l3.6-22.6h6.7l.2 14 4.5-14H43zM51.4 24.9c-.3-.1-.7-.1-1-.1-2.6 0-4 1-4 2.8-.1.5.1 1 .4 1.3.3.4.8.6 1.3.6 1.8 0 3.2-1.9 3.3-4.6zm3.3 8.2h-3.8l.1-1.9c-1.1 1.5-3 2.3-4.9 2.2-2.5 0-4.2-2-4.2-5 0-4.5 3-7.1 8.2-7.1.6 0 1.3 0 1.9.1.1-.4.2-.8.2-1.2 0-1.2-.8-1.7-3-1.7-1.3 0-2.6.2-3.8.5l-.6.2-.4.1.6-4.1c1.8-.6 3.7-1 5.6-1 4 0 6.1 1.9 6.1 5.4 0 1.2-.2 2.4-.4 3.6l-1 6.5L55 31l-.1.9-.1.6-.1.6zM127.4 24.9c-.3 0-.7-.1-1-.1-2.6 0-4 1-4 2.8-.1.5.1 1 .4 1.3.3.4.8.6 1.3.6 1.8 0 3.2-1.9 3.3-4.6zm3.3 8.2h-3.8l.1-1.9c-1.1 1.5-3 2.3-4.9 2.2-2.5 0-4.2-2-4.2-5 0-4.5 3-7.1 8.2-7.1.6 0 1.3 0 1.9.1.1-.4.2-.8.2-1.2 0-1.2-.8-1.7-3-1.7-1.3 0-2.6.2-3.8.5l-.7.2-.4.1.6-4.1c1.8-.6 3.6-1 5.5-1 4 0 6.1 1.9 6.1 5.4 0 1.2-.2 2.4-.4 3.6l-1 6.5-.1 1.3-.2.9-.1.6v.6zM143.7 14.5h-.5c-1.5 0-2.4.8-3.8 3l.4-2.8h-4.2l-2.8 18.4h4.6c1.6-11.2 2.1-13.2 4.3-13.2h.3c.3-1.9.9-3.7 1.7-5.4z"/><path class="st1" d="M124.2 50.9c0 4.2-1.3 6.6-3.3 6.6-1.5 0-2.4-1.6-2.4-4.1 0-2.9 1.3-6.2 3.4-6.2 1.8 0 2.3 1.8 2.3 3.7zm4.6.1c0-4.6-2.3-8.2-6.6-8.2-5 0-8.2 4.4-8.2 10.8 0 4.6 1.9 8.4 6.6 8.4s8.2-3.4 8.2-11zM115.5 39.5l-.7 4.9c-1.2-.8-2.5-1.2-3.9-1.2-3.3 0-5.5 3.5-5.5 8.5 0 3.4 1.5 5.5 4 5.5 1.3-.1 2.6-.4 3.7-1.1l-.8 5.2c-1.2.4-2.5.6-3.8.7-4.7 0-7.6-3.7-7.6-9.8 0-8.1 4-13.7 9.7-13.7.7 0 1.3.1 1.9.2l1.8.5c.7.1.8.1 1.2.3zM86.8 42.9c-.1 0-.3-.1-.4 0-1.4 0-2.2.8-3.5 3l.3-2.9h-3.9l-2.6 18.4H81c1.6-11.2 2-13.2 4-13.2h.3c.3-1.9.9-3.7 1.7-5.4l-.2.1zM143.3 61.2h-4.1l.2-1.8c-.9 1.3-2.4 2-4 2-3.2 0-5.2-3-5.2-7.6 0-6.1 3.3-11.3 7-11.3 1.7 0 3 .8 4.1 2.5l1-6.5h4.2l-3.2 22.7zm-6.4-4.3c2 0 3.4-2.6 3.4-6.2 0-2.3-.8-3.6-2.3-3.6-2 0-3.4 2.6-3.4 6.2.1 2.3.9 3.6 2.3 3.6zM46.3 61.1c-1.4.5-2.9.8-4.4.7-4.8 0-7.4-2.8-7.4-8.2 0-6.3 3.2-11 7.6-11 3.6 0 5.8 2.6 5.8 6.7 0 1.5-.2 3-.5 4.5h-8.6v.6c0 2.1 1.3 3.2 3.8 3.2 1.6 0 3.1-.4 4.5-1.2l-.8 4.7zm-2.5-10.9v-.9c0-1.5-.8-2.4-2-2.4s-2.4 1.2-2.8 3.3h4.8zM97.7 61.1c-1.4.5-2.9.7-4.4.7-4.8 0-7.4-2.8-7.4-8.2 0-6.3 3.2-11 7.6-11 3.6 0 5.8 2.6 5.8 6.7 0 1.5-.2 3.1-.5 4.5h-8.6v.6c0 2.1 1.3 3.2 3.8 3.2 1.6 0 3.1-.4 4.5-1.2l-.8 4.7zm-2.4-10.9v-.9c0-1.5-.8-2.4-2-2.4s-2.4 1.2-2.8 3.3h4.8zM158 61.1c-1.4.5-2.9.7-4.4.7-4.8 0-7.4-2.8-7.4-8.2 0-6.3 3.2-11 7.6-11 3.6 0 5.8 2.6 5.8 6.7 0 1.5-.2 3.1-.5 4.5h-8.6v.6c0 2.1 1.3 3.2 3.8 3.2 1.6 0 3.1-.4 4.5-1.2l-.8 4.7zm-2.4-10.9v-.9c0-1.5-.8-2.4-2-2.4s-2.4 1.2-2.8 3.3h4.8zM33.5 43.7c-1.1-.7-2.3-1.1-3.6-1.1-1.7 0-3.2.4-3.2 2.2 0 3.2 6.4 2 6.4 9 0 6.4-4.2 8-8 8-1.8-.1-3.5-.5-5.1-1.2l1-4.7c1.2.9 2.6 1.3 4.1 1.3 1.4 0 3.5-.4 3.5-2.7 0-3.7-6.4-2.3-6.4-8.8 0-5.9 3.7-7.7 7.3-7.7 2 0 3.9.3 5 1l-1 4.7zM58.9 61.1c-1.2.5-2.5.8-3.8.7-3.8 0-6.1-3.8-6.1-8.3 0-6 3.4-10.8 8.4-10.8 1.4.1 2.8.5 4.1 1.2l-1 4.4c-.9-.6-1.9-.9-2.9-1-2.3 0-4 2.1-4 5.9 0 2.2 1.2 4 3.1 4 1 0 2-.3 2.9-.8l-.7 4.7zM75.1 56.5c-.2 1.6-.4 3.1-.5 4.8h-4.2l.4-3c-1.3 2.1-2.7 3.4-5 3.4-2.6 0-4-2.7-4-6.3 0-1.3.1-2.6.4-3.9l1.1-8.5h4.6l-1.3 8.5c-.2.9-.3 1.8-.3 2.8 0 1.1.5 2.2 1.7 2.1 1.9 0 3-2.3 3.3-5l1.3-8.4h4.6l-2.1 13.5zM162.4 61.1h-.7V58h-1.1v-.6h2.8v.6h-1zM167 61.1h-.7V58l-.6 3.1h-.7l-.6-3.1v3.1h-.7v-3.7h1.1l.6 2.9.6-2.9h1z"/></g></g><g id="Verified-by-Visa"><path class="st2" d="M142.2 59.7c-.2 1.5-.4 2.9-.7 4.2-1.5-.6-3.1-1-4.7-.9-1.2.1-2.6.5-2.6 1.6s2 1.9 3 2.4c2 1 4.1 2.2 4.3 4.8.1 1.8-.6 3.5-1.8 4.7-2.8 2.6-8.9 2.9-13.1 1.2.3-1.4.5-2.8.7-4.3 1.6.7 3.9 1.6 6.3 1.3 1.1-.1 2.5-.8 2.4-1.9 0-1.4-2.6-2.2-4-3-1.5-.8-3.2-2.3-3.4-4.4 0-1.3.4-2.6 1.2-3.7 2.3-2.5 7.8-3.5 12.4-2zM92.4 32.3H98l-3.4 21.9H89zM73 32.3h8.6c5.5 0 6.9 3.2 6.3 7-.5 3-2.7 5.4-5.7 6l5.4 9h-7.1l-4-8.6-1.4 8.6h-5.6l3.5-22zm4.9 4.3l-.9 5.6h1.6c1.6 0 3-1.2 3.3-2.8.1-.7-.1-1.4-.5-2-.5-.5-1.2-.8-1.9-.8h-1.6zM118 32.3h5.6l-3.4 21.9h-5.6zM127.9 32.3h12.3l-.8 4.8h-6.7l-.6 3.7h6.4l-.8 4.8h-6.3l-.6 3.9h6.7l-.8 4.7h-12.3zM57.4 32.3h12.3l-.8 4.8h-6.7l-.5 3.7H68l-.7 4.8h-6.4l-.6 3.9H67l-.8 4.7H53.9zM102.3 32.3h12.4l-.8 4.8h-6.8l-.6 3.7h6.2l-.7 4.8h-6.2l-1.4 8.6h-5.6zM143.5 32.3h7.3c8.7 0 10.7 6.6 10 11-1 6.2-6.5 11-13.4 11H140l3.5-22zm4.8 4.8h1.2c4.3 0 6 3 5.5 6-.6 3.9-3.4 6.4-7.1 6.4h-1.5l1.9-12.4zM31.1 29.3h10.4l1.2 15.9c6.8-12 13.8-23.5 20.8-34.8h3.4c-7.4 14.5-14.8 29-21.9 43.8h-7.6l-1.9-17.6c-.5-4.4-1.3-6.2-4.5-6.7l.1-.6z"/><path class="st3" d="M35.1 20.2l8.8 3.8.8 9.9h.6l8-13.7v-.6H35.1z"/><path class="st2" d="M75.9 70c1.3 0 2.3 1.2 2 2.8-.2 1.5-1.3 2.6-2.8 2.8-1.3 0-2.3-1.2-2-2.8.1-1.6 1.3-2.7 2.8-2.8zm-4.5-10.6H75l-1.2 8.7c1-1 2.3-1.6 3.7-1.6 2.9 0 4.8 2.8 4.3 6.3s-3.2 6.3-6.2 6.3c-1.3 0-2.5-.6-3.2-1.8l-.2 1.4h-3.6l2.8-19.3z"/><path class="st2" d="M82.1 66.7h4.4l1.9 6.1 3.8-6.1h4.2L85.3 84.6h-4.1l4.6-7.5zM118 78.7l3.2-19.3h5.2l-3.2 19.3zM113.6 59.3c-1.8 4.3-3.3 8.8-5.2 13l-.5-2.5.1.4c-.4-1.4-1.1-2.6-2-3.7-.2-.2-.3-.4-.5-.6l-.3-.4c-1.3-1.3-2.8-2.5-4.4-3.5l4.6 16.7h5.6c2.6-6.5 5.5-12.8 8.1-19.3l-5.5-.1z"/><path class="st3" d="M103.8 59.3h-8.5v.4c4.9 1 11.1 5.1 12.7 10.5l-1.8-9c-.2-1.1-1.2-2-2.4-1.9z"/><path class="st2" d="M159.8 78.7H155c-.3-.9-.4-2.1-.7-3h-6.5l-1.2 3h-5.5l7.1-16.5c.3-.7.9-1.7 1.1-2.2.4-.7 1.8-.7 2.3-.7h3.9l4.3 19.4zm-7.9-14l-2.7 7.2h4.3l-1.6-7.2z"/></g><g class="st4"><path class="st5" d="M396.6 44.7c1.3 1.4 2 3.2 2 5.3 0 1.6-.4 3.1-1.3 4.5s-2.2 2.5-3.9 3.3c-1.7.8-3.9 1.2-6.4 1.2-2 0-3.9-.3-5.8-.8s-3.5-1.3-4.9-2.2l2.5-5c1.1.8 2.3 1.4 3.7 1.9 1.4.4 2.8.7 4.3.7 1.6 0 2.9-.3 3.8-.9.9-.6 1.4-1.5 1.4-2.7 0-2.3-1.7-3.4-5.2-3.4h-3v-4.3l5.8-6.5h-11.9v-5.2h19.6v4.2L391 42c2.4.3 4.3 1.3 5.6 2.7zM403.3 30.5H416c3 0 5.7.6 8.1 1.7s4.1 2.8 5.4 4.9c1.3 2.1 1.9 4.6 1.9 7.4s-.6 5.3-1.9 7.4c-1.3 2.1-3.1 3.7-5.4 4.9s-5 1.7-8.1 1.7h-12.7v-28zm12.4 22.7c2.8 0 5-.8 6.7-2.3 1.7-1.6 2.5-3.7 2.5-6.3 0-2.7-.8-4.8-2.5-6.3-1.7-1.6-3.9-2.3-6.7-2.3h-5.9v17.4h5.9z"/></g><g class="st4"><path class="st5" d="M378.3 76.2c-.7-.2-1.2-.5-1.6-.8l.6-1.3c.4.3.8.5 1.4.7.5.2 1.1.3 1.6.3.7 0 1.2-.1 1.5-.3.3-.2.5-.5.5-.9 0-.3-.1-.5-.3-.6s-.4-.3-.7-.4c-.3-.1-.7-.2-1.2-.3-.7-.2-1.3-.3-1.7-.5-.4-.2-.8-.4-1.1-.8-.3-.4-.5-.8-.5-1.4 0-.5.1-1 .4-1.4.3-.4.7-.7 1.2-1 .5-.2 1.2-.4 2-.4.6 0 1.1.1 1.6.2s1 .3 1.4.6l-.5 1.3c-.4-.2-.8-.4-1.2-.5-.4-.1-.9-.2-1.3-.2-.7 0-1.2.1-1.5.3-.3.2-.5.5-.5.9 0 .3.1.5.3.6.2.2.4.3.7.4.3.1.7.2 1.2.3.7.2 1.2.3 1.7.5.4.2.8.4 1.1.8s.5.8.5 1.4c0 .5-.1 1-.4 1.4s-.7.7-1.2 1c-.6.2-1.2.4-2 .4-.7 0-1.3-.1-2-.3zM392 73.4h-5.4c.1.5.3.9.7 1.2.4.3.9.4 1.5.4.8 0 1.4-.3 1.9-.8l.9 1c-.3.4-.7.7-1.2.8-.5.2-1 .3-1.6.3-.8 0-1.4-.2-2-.5-.6-.3-1-.7-1.3-1.3-.3-.5-.5-1.2-.5-1.8 0-.7.2-1.3.5-1.8s.7-1 1.3-1.3c.5-.3 1.2-.5 1.8-.5.7 0 1.3.1 1.8.4s.9.7 1.2 1.3c.3.5.4 1.2.4 1.9.1.3.1.5 0 .7zm-4.8-2.3c-.4.3-.6.7-.7 1.2h3.9c-.1-.5-.3-.9-.6-1.2-.4-.3-.8-.5-1.3-.5s-.9.2-1.3.5zM394.9 76c-.6-.3-1-.7-1.3-1.3-.3-.5-.5-1.2-.5-1.8s.2-1.3.5-1.8.8-1 1.3-1.3c.6-.3 1.2-.5 1.9-.5s1.3.1 1.8.4.9.7 1.2 1.2l-1.2.7c-.2-.3-.4-.6-.7-.7s-.6-.2-1-.2c-.6 0-1.1.2-1.5.6-.4.4-.6.9-.6 1.6 0 .7.2 1.2.6 1.6s.9.6 1.5.6c.4 0 .7-.1 1-.2.3-.2.5-.4.7-.7l1.2.7c-.3.5-.7.9-1.2 1.2-.5.3-1.1.4-1.8.4-.7-.1-1.3-.2-1.9-.5zM407.9 69.4v6.9h-1.5v-.9c-.3.3-.6.6-1 .7s-.8.3-1.3.3c-.9 0-1.7-.3-2.2-.8s-.8-1.3-.8-2.3v-4h1.6V73c0 .6.1 1.1.4 1.4.3.3.7.5 1.2.5.6 0 1-.2 1.4-.5.3-.4.5-.9.5-1.6v-3.5h1.7zM414.1 69.3v1.5h-.4c-.6 0-1.1.2-1.5.6-.4.4-.5.9-.5 1.6v3.4H410v-6.9h1.5v1c.6-.8 1.4-1.2 2.6-1.2zM421.9 73.4h-5.4c.1.5.3.9.7 1.2.4.3.9.4 1.5.4.8 0 1.4-.3 1.9-.8l.9 1c-.3.4-.7.7-1.2.8-.5.2-1 .3-1.6.3-.8 0-1.4-.2-2-.5-.6-.3-1-.7-1.3-1.3-.3-.5-.5-1.2-.5-1.8 0-.7.2-1.3.5-1.8s.7-1 1.3-1.3c.5-.3 1.2-.5 1.8-.5.7 0 1.3.1 1.8.4s.9.7 1.2 1.3c.3.5.4 1.2.4 1.9v.7zm-4.8-2.3c-.4.3-.6.7-.7 1.2h3.9c-.1-.5-.3-.9-.6-1.2-.4-.3-.8-.5-1.3-.5s-1 .2-1.3.5z"/></g></svg>