<svg width="160" height="169" fill="none" xmlns="http://www.w3.org/2000/svg"><path d="M94.544 1.358c-.7.8-1.6 1.3-2 1-.5-.3-2.7 1.6-4.9 4.1-4.3 5-4.7 5.1-3.1 1 1.3-3.6.6-3.2-2 .8-2.1 3.5-5.4 4.1-4.4.8.3-.9-.2-.5-1.1 1-1.8 3.2-4.1 3.7-4.8 1-.4-1.3-.5-1.3-.6.4-.1 1.7-.7 2.1-2.7 1.8-1.5-.1-3.1-.7-3.7-1.3-.6-.6-1.9-1.1-2.9-1.1-2 0-1.9.7.8 10 1.3 4.3 1.2 4.6-1.3 7.2-3.3 3.4-2.5 5.4 3.1 7.9 2.5 1.1 4.8 2.4 5.1 2.9.7 1.1 7.6 1.1 12 0l3-.8-3-.2-3-.2 4.2-1.9 4.2-1.9.7-9.1.7-9 4.9-4.2c2.8-2.3 5.5-4.2 6.1-4.2 1.6 0 8.7-5.7 8.7-7 0-.5-1.7.8-3.8 2.8-4.3 4.2-5.2 4.5-5.2 1.9 0-1.1-.8-2.6-1.9-3.6-1.6-1.5-2-1.5-3.1-.1zm-2.8 3.7c-.7.7-1.2.8-1.2.2 0-1.4 1.2-2.6 1.9-1.9.2.3-.1 1.1-.7 1.7z" fill="#FFFFFD"/><path d="M38.444 2.358c.5 1.1 3.9 4.9 7.5 8.5l6.6 6.4v16.6l-2.7.1c-2.3.1-2 .3 1.7 1.5 2.5.8 6.3 1.6 8.5 1.9 3.4.4 3.2.2-1.5-1.1l-5.5-1.5.3-8.8.3-8.8-8.1-8.4c-4.5-4.6-7.7-7.5-7.1-6.4zM106.544 8.158c-1.4 1.2-3.9 3.2-5.5 4.4-1.7 1.2-2.5 2.3-2 2.3.6 0 3.3-2 6-4.5 2.8-2.4 4.8-4.4 4.5-4.4-.3 0-1.6 1-3 2.2z" fill="#FFFFFD"/><path d="M40.344 11.358c1.3 2.6 8.2 9.2 8.2 7.9 0-.5-2.1-3-4.6-5.4-2.6-2.5-4.2-3.6-3.6-2.5zM93.244 14.658c-3.6 3.7-3.7 4-3.7 11 0 4 .4 7.2.9 7.2.4 0 1.1-3 1.5-6.7.6-5.4 1.3-7.3 3.6-10 5.4-6.1 3.4-7.4-2.3-1.5zM37.844 20.858c0 2.5.2 3.5.4 2.2.2-1.2.2-3.2 0-4.5-.2-1.2-.4-.2-.4 2.3z" fill="#FFFFFD"/><path d="M95.544 18.858c-1.5 1.5-2 3.3-2 7.6 0 5.1.2 5.5 2.3 5.4 3.4-.3 4.7-.1 4.7.9 0 .8-2.9 1.9-7 2.7-.8.2-3 .6-4.9.9-6.4 1.2-2.2 1.7 5.1.6 6.3-1 7.7-1.6 10.1-4.3 1.5-1.8 2.7-3.6 2.7-4 0-.4-1.6-2.2-3.5-3.9-2.1-1.9-3.5-4.2-3.5-5.6 0-2.8-1.4-2.9-4-.3zM48.844 26.358c0 3.3.2 4.5.4 2.7.2-1.8.2-4.5 0-6s-.4 0-.4 3.3zM33.544 25.658c0 .5.7 1.6 1.6 2.3 1.4 1.2 1.6 1.1 1.3-.5-.4-2-2.9-3.5-2.9-1.8zM112.344 27.558c-1.9 2.2-3.3 6.3-2.1 6.3.5 0 1.5-1.5 2.2-3.3l1.4-3.2.7 4 .7 4 .2-4.8c.1-5-.7-5.8-3.1-3zM40.544 28.558c0 .5 1 1.8 2.3 2.9l2.2 1.9-2-2.5c-1.1-1.4-2.1-2.7-2.2-2.9-.2-.2-.3 0-.3.6z" fill="#FFFFFD"/><path d="M106.545 33.958c-.6 1.1-1 3.2-.9 4.7.5 5.8-4.8 16.2-8.3 16.2-.4 0-1.3 1.2-1.9 2.6-.8 2.3-.6 2.9 1.3 4.3 1.3.9 2.6 1.5 3.1 1.3.4-.1.7.3.7.8 0 1.5-1.7 1.2-4.8-.7l-2.7-1.7 2.4 2.7c1.4 1.5 2.2 2.9 1.9 3.2-.2.3-1.3-.4-2.3-1.5-1-1.1-3-2-4.4-2-4 0-7.1-1.1-7.1-2.5 0-.6-.8-1.9-1.8-2.9-1.1-.9-2.5-3.5-3.1-5.9-1.6-5.2-3.7-8.7-5.5-8.7-.9 0-1.5 2.3-2 7.6-.3 4.3-1.1 8.3-1.7 9-.7.9-.7 1.9.1 3.3 1.2 2.3 5.7 2.8 9 1.1 1-.6 2.1-.6 2.4-.1.7 1.1-6.8 7.1-8.9 7.1-.9 0-1.3.4-1 1 .4.6 3.8.8 8.1.6 4.1-.2 7.4 0 7.4.4 0 .8-10 3.1-13.7 3.2-2.4 0-3.3 1.7-1 1.9.6.1 1.7.2 2.2.4.6.1 2 .3 3.3.3 3.5.3 1.7 2.1-3.4 3.3-2.4.6-4.4 1.4-4.4 1.6 0 .3.9 1.8 2.1 3.4 1.7 2.4 2.8 2.9 6 2.9 5.1 0 7.2-1.1 13.3-6.9 4.1-3.9 4.7-4.2 4.1-2.1-.4 1.4-2.2 5-4 8.1-4.8 8.2-5 9.4-2.1 11.3 2.4 1.5 2.6 1.5 4.6-1.1 3-3.9 4.9-11.6 5.4-21.8.3-6.6 1.1-10.7 2.9-15.3 1.4-3.4 2.2-6.2 1.9-6.2-.4 0 .4-.6 1.7-1.3 2-1 7.1-10.7 5.6-10.7-.3 0-1 1.1-1.5 2.5-1.4 3.6-3.1 3.2-2-.5.5-1.7.5-3 .1-3-.9 0-.8-2.1.4-8.3.8-4.1.2-4.8-1.5-1.6zM33.544 35.658c0 1.7.5 2.9 1.3 2.9.9 0 1.2-1 .9-2.9-.2-1.5-.8-2.8-1.3-2.8s-.9 1.3-.9 2.8z" fill="#FFFFFD"/><path d="M110.745 37.858c-.6 1.1-.8 2.1-.3 2.5.5.3 1.3-.4 1.6-1.6.9-2.8.2-3.3-1.3-.9zM35.844 47.358c.9 1.6 2.5 3.8 3.6 4.7 1.3 1.1 2.1 3 2.1 4.7 0 1.7.4 3.2.9 3.5 2 1.3-.9-7.8-3.5-10.7-1.6-1.8-3.3-3.7-3.8-4.2-.4-.6-.1.3.7 2zM45.245 54.958c.7.7 1.5 1 1.8.7.3-.3-.2-.9-1.2-1.2-1.4-.6-1.5-.5-.6.5zM110.544 56.758c0 .5 2 1.9 4.4 3 8 3.9 8.1 4.3 8.2 22 0 13 .3 16 1.7 18.2 1.7 2.5 1.6 2.7-.4 5.2-1.5 2-1.7 2.7-.6 2.7 1.9 0 4.7-3.2 4.7-5.5 0-1-.7-2.6-1.5-3.5-1.2-1.3-1.7-4.9-2-14.6-.7-19.6-.7-19.7-7.3-24.4-5.6-4.1-7.2-4.7-7.2-3.1zM60.044 61.058c-1.1.6-2.2 1.2-2.4 1.4-.2.2.6 1.4 1.7 2.9l2 2.5 1.1-3.1c1.8-5.2 1.4-5.8-2.4-3.7zM16.544 62.758c-.5 1.1-1 2.7-1 3.7 0 1.3.5 1.2 2.5-1 1.3-1.4 3.2-2.6 4.2-2.6 1.5 0 1.6-.2.3-1-2.4-1.5-4.8-1.2-6 .9z" fill="#FFFFFD"/><path d="M107.544 61.658c0 .4 2 2.3 4.5 4.2l4.5 3.4v13.8c0 9 .4 13.7 1 13.3 1.2-.8 1.3-23.5.1-26.7-.9-2.3-10.1-9.7-10.1-8zM19.744 65.458c-1.3.9-2.2 2.6-2.2 4.1v2.6l2.4-2.6c1.3-1.4 3.6-2.9 5-3.3 1.4-.3 2.3-1 2-1.5-.8-1.4-4.7-1.1-7.2.7z" fill="#FFFFFD"/><path d="M105.544 64.358c0 .3 1.5 1.8 3.3 3.4l3.2 2.9.3 15.6c.2 8.7.8 15.6 1.3 15.6s.9-6.8.9-15.9v-15.9l-3.9-3.1c-3.8-3-5.1-3.7-5.1-2.6zM40.544 66.858c0 .5.7.7 1.5.4.8-.4 1.5-.8 1.5-1 0-.2-.7-.4-1.5-.4s-1.5.4-1.5 1zM23.344 68.358c-3 1.7-4.2 4.5-3.3 7.6.6 1.8.4 2-1.5 1.4-1.4-.5-2.8-.1-4.2 1.1-3.5 3.3-8.1 10.8-8.2 13.7-.1 1.6-.6 2.5-1.3 2.3-1.2-.5-2.3 1.5-2.3 4 0 2.6 1.6 1.4 7.5-5.8 10.8-13.1 14.5-16.6 19.1-18.2l4.4-1.5 8.5 9.6c4.7 5.2 8.5 9.9 8.5 10.4s-1.6 1.9-3.5 3c-3.8 2.3-4.3 4.3-2 7.3 2.4 3.2 1.8 4.4-5 9.3-3.6 2.6-6.5 5.2-6.5 5.8 0 .6.7 2.1 1.6 3.3l1.6 2.3 3.5-3.8 3.5-3.8-3.2 4.3c-4.2 5.6-3.1 6.7 1.6 1.6l3.6-3.9-3.2 4.2c-1.7 2.4-3 4.8-2.8 5.5.2.6 2.1-1.2 4.2-4 2-2.8 5.6-6.6 7.9-8.3l4.2-3.2-5.1 5.4c-6.8 7.2-9.4 11.2-9.4 14.2 0 1.4-.4 2.9-1 3.2-1.2.7-1.3 2.5-.2 2.5.4 0 1.5-1.7 2.4-3.8 2.2-4.6 9.7-15.2 12-16.5 1.3-.9 2.9.1 8.4 4.9 21.2 18.7 27.4 24.1 32.2 27.6l5.4 4 2.3-2.2c1.2-1.1 3.1-3.9 4.1-6.2 1.8-3.9 1.8-4.1-.1-5.4-1.7-1.3-2.1-1-4.7 2.9-1.5 2.3-2.8 3.6-2.8 2.9 0-.8 1-2.8 2.2-4.4 2.1-3 2.1-3.1.3-4.4-2.6-1.9-2.7-1.8-5.3 2.1-1.2 1.9-2.7 3.5-3.3 3.5-.6 0 .1-1.4 1.5-3.1 3.2-3.7 3.3-5.5.5-7-1.8-.9-2.4-.8-3.1.5-.5.9-2.1 2.8-3.5 4.4-2.4 2.6-2.5 2.6-1.1.2.8-1.4 2.1-3.5 2.9-4.8 1.2-2 1.2-2.4-.1-3.2-2.3-1.5-2.7-1.3-4.7 2-.9 1.7-2.1 3-2.6 3-.9 0-.1-1.7 2.2-4.3 1.4-1.7 1.4-2-.3-3.3-1.8-1.3-2.2-1.1-4.9 1.9-1.5 1.7-2.5 2.5-2.1 1.7.4-.8 1.4-2.3 2.3-3.3 1.4-1.7 1.4-2-.4-3.3-1.7-1.2-2.1-1.1-4.2.8-2.6 2.4-3.2 1.4-.7-1.4 1.4-1.4 1.4-2 .4-3.3-1.8-2.2-3.5-1.9-5.5 1.1-.9 1.4-1.9 2.3-2.3 2-.3-.3.5-1.7 1.7-3 2.2-2.4 2.3-2.4.3-3.5-1.5-.8-2.3-.6-3.7.9-1 1.1-2 1.8-2.3 1.5-.3-.3.3-1.4 1.3-2.5 1.5-1.6 1.6-2.3.6-3.3-1-.9-1.6-.7-3.2 1.2-2.3 2.8-3.6 2.2-1.8-.7 1-1.6 1-2.3-.4-3.6-1.5-1.6-1.9-1.6-4.4-.1-2.7 1.6-2.7 1.6-.5 0 3.3-2.6 2.7-3.8-1-1.9l-3.3 1.6 3-2.6c3.4-2.8 2.3-3.5-1.5-.9-1.4.9-.9 0 1.2-1.9 4.6-4.3 5.8-10.2 3.4-17.2-.9-2.6-1.6-5.5-1.6-6.5 0-2.8-3.2-6.3-5.1-5.6-1 .4-1.4 1.5-1.1 3.4.6 4.4-1.6 4.8-4.8 1-1.6-1.9-2.9-2.9-3-2.3 0 .6.7 1.7 1.5 2.4s1.5 1.6 1.5 2.1-3.4-2.7-7.6-7.1c-4.2-4.4-8.4-8-9.3-8-.9.1-2.8.7-4.3 1.5zm15.2 50.5c-1.2 1.6-2.4 3-2.6 3-.7 0 .5-2 2.4-4.3 2.4-2.7 2.5-2 .2 1.3zM43.244 69.758c.3 1.3 1.1 1.7 2.4 1.4 1.5-.4 1.7-.8.8-1.9-1.7-2.1-3.8-1.7-3.2.5z" fill="#FFFFFD"/><path d="M105.845 70.658c2.6 2.7 2.6 2.9 2.8 19 .2 8.9.6 16.2 1.1 16.2.4 0 .8-7.3.8-16.3v-16.3l-2.8-2.7c-3.7-3.6-5.3-3.5-1.9.1zM8.544 71.658c-1.6 1.3-2.1 2.6-1.8 4.7l.4 3 1.2-2.8c.6-1.5 1.9-3 2.7-3.3 1.6-.7 2.1-3.4.6-3.4-.5 0-1.9.8-3.1 1.8zM45.244 72.458c-1.1 1.2.3 2.4 2.9 2.4 1.6 0 2.4-.5 2.2-1.3-.5-1.3-4-2.2-5.1-1.1zM11.144 75.358c-1.6 1.5-2.6 3.5-2.6 5.2v2.8l1.9-2.9c1.1-1.6 2.9-3.5 4.1-4.1 1.8-1 1.9-1.3.7-2.3-1.1-1-2-.7-4.1 1.3zM28.845 77.658c-.9.5 1.2 3.2 6.6 8.6 7.1 7 8.1 7.7 10 6.7 1.1-.7 2.1-1.4 2.1-1.6 0-.3-3-3.7-6.7-7.5-6.4-6.8-9-8.1-12-6.2zM3.644 83.258c-.8.9-.9 2.5-.4 4.6l.8 3.2 1.8-3.6c1.7-3.6.7-5.1-1.2-1.9-.9 1.5-1 1.5-1.1.2 0-.8.5-2 1.2-2.7.7-.7.9-1.2.6-1.2-.3 0-1.1.6-1.7 1.4zM139.944 90.858c-1.7 1.8-2.5 1.9-4.9 1-2.2-.8-3-.8-3.7.2-1.3 2.1-1 2.8 2.2 4.6 1.6.9 3 2.3 3 2.9 0 .7.5 1.3 1.1 1.3.6 0 .9-1.4.7-3.2-.2-2.7 0-3.2 1.8-3.2 1.2 0 4.5 1.6 7.5 3.6 6.4 4.4 10.9 5.8 10.9 3.5 0-.9-.4-1.9-1-2.2-.5-.3-1-.1-1 .4 0 2.1-2.7 1.1-8.4-3-4.4-3.2-5.5-4.5-5.1-6 .8-2.5-.5-2.4-3.1.1zM.144 91.358c-.3.8-.1 2.5.3 3.7.9 2.2.9 2.2 1.7.3.4-1.1 1-2.5 1.2-3 .3-.6-.2-.3-1.3.5-1.6 1.4-1.7 1.3-1.1-.8.8-2.4.1-3.1-.8-.7zM4.544 103.458c0 .3.5 1.5 1.1 2.7 1.3 2.7 18.1 18.9 17.7 17.1-.3-1.2-18.8-20.8-18.8-19.8zM155.745 109.558c.2 1 1.1 1.9 2.1 2.1 1.6.3 1.7.1.7-1.7-1.3-2.5-3.3-2.8-2.8-.4zM52.044 126.758c-.3.2 0 1 .5 1.7.6.6.9 1.8.8 2.5-.2.9.6 1.4 2.2 1.4 3.5 0 4.3-.5 3-2-.6-.7-.9-1.9-.8-2.6.3-1.2-4.6-2.1-5.7-1zM29.844 129.158c-.3.6-.1.7.5.3.5-.3 1.2-.1 1.4.6.3.8.6.7 1-.3.7-1.7-1.9-2.2-2.9-.6zM64.044 133.758c-.8 1.5.3 3.1 2.1 3.1.9 0 1.4-.7 1.2-1.7-.4-2-2.4-2.8-3.3-1.4zM43.044 141.858c1 1.1 2 1.8 2.3 1.5.7-.6-1.8-3.5-3.1-3.5-.5 0-.2.9.8 2zM56.544 141.858c0 .5.5 1 1 1 .6 0 1-.5 1-1 0-.6-.4-1-1-1-.5 0-1 .4-1 1zM72.744 141.758c.4 1.3 1.8 1.6 1.9.4 0-.4-.5-.9-1.1-1.2-.7-.2-1.1.2-.8.8zM53.045 143.758c-.3.5-.1 1.2.5 1.6.5.3 1-.1 1-.9 0-1.8-.6-2.1-1.5-.7zM60.544 144.858c0 .5.5 1 1.1 1 .5 0 .7-.5.4-1-.3-.6-.8-1-1.1-1-.2 0-.4.4-.4 1zM76.744 144.958c.2.7 1 1.5 1.7 1.7.8.3 1.2-.1.9-.9-.2-.7-1-1.5-1.7-1.7-.8-.3-1.2.1-.9.9zM48.044 146.858c1 1.1 2 1.8 2.3 1.5.7-.6-1.8-3.5-3.1-3.5-.5 0-.2.9.8 2zM56.144 146.758c-.4.5-.2 1.2.3 1.5.5.4 1.2.2 1.5-.3.4-.5.2-1.2-.3-1.5-.5-.4-1.2-.2-1.5.3zM63.544 147.858c0 .5.5 1 1 1 .6 0 1-.5 1-1 0-.6-.4-1-1-1-.5 0-1 .4-1 1zM80.744 149.058c.5 1.5 2.8 1.8 2.9.3 0-.6-.7-1.2-1.7-1.3-1-.3-1.5.1-1.2 1zM59.544 149.858c0 .5.5 1 1.1 1 .5 0 .7-.5.4-1-.3-.6-.8-1-1.1-1-.2 0-.4.4-.4 1zM53.544 152.358c1.3 1.4 2.6 2.3 2.8 2 .7-.7-2.9-4.5-4.1-4.5-.6 0 0 1.1 1.3 2.5zM66.544 150.858c0 .5.5 1 1 1 .6 0 1-.5 1-1 0-.6-.4-1-1-1-.5 0-1 .4-1 1zM85.745 152.458c.1.9.9 1.9 1.6 2.2.9.3 1.3-.2 1-1.4-.1-.9-.9-1.9-1.6-2.2-.9-.3-1.3.2-1 1.4zM62.544 152.858c0 .5.5 1 1 1 .6 0 1-.5 1-1 0-.6-.4-1-1-1-.5 0-1 .4-1 1zM70.544 153.858c0 .5.5 1 1 1 .6 0 1-.5 1-1 0-.6-.4-1-1-1-.5 0-1 .4-1 1zM57.544 155.658c0 .5.7 1.5 1.5 2.2.8.7 1.5.8 1.5.2 0-.5-.7-1.5-1.5-2.2-.8-.7-1.5-.8-1.5-.2zM65.544 155.858c0 .5.5 1 1 1 .6 0 1-.5 1-1 0-.6-.4-1-1-1-.5 0-1 .4-1 1zM73.544 156.758c0 1.3 2.9 3.5 3.7 2.8.7-.8-1.5-3.7-2.8-3.7-.5 0-.9.4-.9.9zM69.544 158.758c0 1.3 2.6 3.2 3.3 2.4.8-.7-1.1-3.3-2.4-3.3-.5 0-.9.4-.9.9zM61.544 159.558c0 1.2 3.8 4.8 4.5 4.1.3-.2-.6-1.5-2-2.8-1.4-1.3-2.5-1.9-2.5-1.3zM67.544 164.558c0 .5.9 1.8 2 2.8 1.1 1 2 1.4 2 .8 0-.5-.9-1.8-2-2.8-1.1-1-2-1.4-2-.8z" fill="#FFFFFD"/></svg>